<svg width="901" height="458" viewBox="0 0 901 458" fill="none" xmlns="http://www.w3.org/2000/svg">
<path d="M324.96 58.64C322.373 58.64 320.067 58.0533 318.04 56.88C316.04 55.7067 314.467 54.0133 313.32 51.8C312.2 49.5867 311.64 46.9333 311.64 43.84C311.64 40.8267 312.187 38.2133 313.28 36C314.373 33.76 315.92 32.0267 317.92 30.8C319.947 29.5733 322.32 28.96 325.04 28.96C328.773 28.96 331.667 29.88 333.72 31.72C335.773 33.5333 337.107 36.1333 337.72 39.52L331.4 39.76C331.08 37.9733 330.387 36.5867 329.32 35.6C328.253 34.5867 326.827 34.08 325.04 34.08C323.547 34.08 322.267 34.48 321.2 35.28C320.133 36.08 319.307 37.2133 318.72 38.68C318.16 40.1467 317.88 41.8667 317.88 43.84C317.88 45.84 318.173 47.5733 318.76 49.04C319.347 50.48 320.173 51.5867 321.24 52.36C322.307 53.1333 323.56 53.52 325 53.52C326.92 53.52 328.4 52.9867 329.44 51.92C330.507 50.8267 331.187 49.32 331.48 47.4L337.84 47.64C337.467 49.96 336.733 51.9333 335.64 53.56C334.547 55.1867 333.107 56.44 331.32 57.32C329.533 58.2 327.413 58.64 324.96 58.64ZM350.698 58.48C348.511 58.48 346.591 58.0267 344.938 57.12C343.311 56.1867 342.044 54.88 341.138 53.2C340.258 51.52 339.818 49.5467 339.818 47.28C339.818 45.0133 340.258 43.0533 341.138 41.4C342.044 39.72 343.311 38.4133 344.938 37.48C346.591 36.5467 348.511 36.08 350.698 36.08C352.884 36.08 354.791 36.5467 356.418 37.48C358.044 38.4133 359.311 39.72 360.218 41.4C361.124 43.0533 361.578 45.0133 361.578 47.28C361.578 49.5467 361.124 51.52 360.218 53.2C359.311 54.88 358.044 56.1867 356.418 57.12C354.791 58.0267 352.884 58.48 350.698 58.48ZM350.698 53.88C352.191 53.88 353.338 53.3067 354.138 52.16C354.964 50.9867 355.378 49.36 355.378 47.28C355.378 45.2 354.964 43.5867 354.138 42.44C353.338 41.2667 352.191 40.68 350.698 40.68C349.204 40.68 348.044 41.2667 347.218 42.44C346.391 43.5867 345.978 45.2 345.978 47.28C345.978 49.36 346.391 50.9867 347.218 52.16C348.044 53.3067 349.204 53.88 350.698 53.88ZM364.429 58V36.56H369.829L370.029 41.72L369.469 41.48C369.762 40.3333 370.202 39.36 370.789 38.56C371.402 37.76 372.136 37.1467 372.989 36.72C373.842 36.2933 374.776 36.08 375.789 36.08C377.576 36.08 379.016 36.6 380.109 37.64C381.229 38.68 381.949 40.08 382.269 41.84L381.509 41.88C381.749 40.6267 382.162 39.5733 382.749 38.72C383.362 37.84 384.109 37.1867 384.989 36.76C385.869 36.3067 386.856 36.08 387.949 36.08C389.442 36.08 390.722 36.3867 391.789 37C392.856 37.6133 393.682 38.5333 394.269 39.76C394.856 40.96 395.149 42.44 395.149 44.2V58H389.149V45.88C389.149 44.2 388.896 42.9467 388.389 42.12C387.882 41.2667 387.056 40.84 385.909 40.84C385.189 40.84 384.576 41.04 384.069 41.44C383.562 41.84 383.162 42.4267 382.869 43.2C382.602 43.9467 382.469 44.8667 382.469 45.96V58H377.069V45.96C377.069 44.3067 376.829 43.04 376.349 42.16C375.869 41.28 375.042 40.84 373.869 40.84C373.149 40.84 372.522 41.04 371.989 41.44C371.482 41.84 371.096 42.4267 370.829 43.2C370.562 43.9733 370.429 44.8933 370.429 45.96V58H364.429ZM408.737 58.48C406.55 58.48 404.63 58.0267 402.977 57.12C401.35 56.1867 400.084 54.88 399.177 53.2C398.297 51.52 397.857 49.5467 397.857 47.28C397.857 45.0133 398.297 43.0533 399.177 41.4C400.084 39.72 401.35 38.4133 402.977 37.48C404.63 36.5467 406.55 36.08 408.737 36.08C410.924 36.08 412.83 36.5467 414.457 37.48C416.084 38.4133 417.35 39.72 418.257 41.4C419.164 43.0533 419.617 45.0133 419.617 47.28C419.617 49.5467 419.164 51.52 418.257 53.2C417.35 54.88 416.084 56.1867 414.457 57.12C412.83 58.0267 410.924 58.48 408.737 58.48ZM408.737 53.88C410.23 53.88 411.377 53.3067 412.177 52.16C413.004 50.9867 413.417 49.36 413.417 47.28C413.417 45.2 413.004 43.5867 412.177 42.44C411.377 41.2667 410.23 40.68 408.737 40.68C407.244 40.68 406.084 41.2667 405.257 42.44C404.43 43.5867 404.017 45.2 404.017 47.28C404.017 49.36 404.43 50.9867 405.257 52.16C406.084 53.3067 407.244 53.88 408.737 53.88ZM433.241 58V36.28C433.241 34.1467 433.815 32.5067 434.961 31.36C436.108 30.1867 437.895 29.6 440.321 29.6H444.881V34.08H441.601C440.775 34.08 440.175 34.2933 439.801 34.72C439.428 35.12 439.241 35.7333 439.241 36.56V58H433.241ZM430.121 41.84V37.36H444.561V41.84H430.121ZM454.891 58.48C452.678 58.48 450.944 57.7733 449.691 56.36C448.464 54.92 447.851 52.92 447.851 50.36V36.56H453.851V48.96C453.851 50.6133 454.104 51.8267 454.611 52.6C455.118 53.3467 455.918 53.72 457.011 53.72C458.238 53.72 459.184 53.3067 459.851 52.48C460.544 51.6267 460.891 50.36 460.891 48.68V36.56H466.891V58H461.411L461.251 51.84L462.011 52C461.691 54.1333 460.931 55.7467 459.731 56.84C458.531 57.9333 456.918 58.48 454.891 58.48ZM471.148 58V36.56H476.548L476.788 42.84L476.028 42.64C476.241 41.04 476.668 39.76 477.308 38.8C477.974 37.84 478.801 37.1467 479.788 36.72C480.774 36.2933 481.854 36.08 483.028 36.08C484.574 36.08 485.881 36.4133 486.948 37.08C488.041 37.7467 488.868 38.6933 489.428 39.92C490.014 41.12 490.308 42.5467 490.308 44.2V58H484.308V46.2C484.308 45.0533 484.214 44.08 484.028 43.28C483.841 42.48 483.508 41.88 483.028 41.48C482.548 41.0533 481.881 40.84 481.028 40.84C479.774 40.84 478.814 41.3067 478.148 42.24C477.481 43.1467 477.148 44.4667 477.148 46.2V58H471.148ZM503.893 58.48C501.706 58.48 499.786 58.0267 498.133 57.12C496.506 56.1867 495.24 54.88 494.333 53.2C493.453 51.52 493.013 49.5467 493.013 47.28C493.013 45.0133 493.453 43.0533 494.333 41.4C495.24 39.72 496.506 38.4133 498.133 37.48C499.786 36.5467 501.706 36.08 503.893 36.08C505.786 36.08 507.48 36.4133 508.973 37.08C510.493 37.7467 511.72 38.7067 512.653 39.96C513.586 41.2133 514.16 42.72 514.373 44.48L508.173 44.76C507.986 43.4267 507.506 42.4267 506.733 41.76C505.986 41.0667 505.04 40.72 503.893 40.72C502.4 40.72 501.24 41.2933 500.413 42.44C499.586 43.5867 499.173 45.2 499.173 47.28C499.173 49.36 499.586 50.9867 500.413 52.16C501.24 53.3067 502.4 53.88 503.893 53.88C505.04 53.88 506 53.5333 506.773 52.84C507.546 52.12 508.013 51.04 508.173 49.6L514.373 49.84C514.16 51.6 513.586 53.1333 512.653 54.44C511.746 55.72 510.546 56.72 509.053 57.44C507.56 58.1333 505.84 58.48 503.893 58.48ZM516.609 58V36.56H522.609V58H516.609ZM516.489 33.92V29.12H522.689V33.92H516.489ZM536.503 58.48C534.316 58.48 532.396 58.0267 530.743 57.12C529.116 56.1867 527.849 54.88 526.943 53.2C526.063 51.52 525.623 49.5467 525.623 47.28C525.623 45.0133 526.063 43.0533 526.943 41.4C527.849 39.72 529.116 38.4133 530.743 37.48C532.396 36.5467 534.316 36.08 536.503 36.08C538.689 36.08 540.596 36.5467 542.223 37.48C543.849 38.4133 545.116 39.72 546.023 41.4C546.929 43.0533 547.383 45.0133 547.383 47.28C547.383 49.5467 546.929 51.52 546.023 53.2C545.116 54.88 543.849 56.1867 542.223 57.12C540.596 58.0267 538.689 58.48 536.503 58.48ZM536.503 53.88C537.996 53.88 539.143 53.3067 539.943 52.16C540.769 50.9867 541.183 49.36 541.183 47.28C541.183 45.2 540.769 43.5867 539.943 42.44C539.143 41.2667 537.996 40.68 536.503 40.68C535.009 40.68 533.849 41.2667 533.023 42.44C532.196 43.5867 531.783 45.2 531.783 47.28C531.783 49.36 532.196 50.9867 533.023 52.16C533.849 53.3067 535.009 53.88 536.503 53.88ZM550.234 58V36.56H555.634L555.874 42.84L555.114 42.64C555.327 41.04 555.754 39.76 556.394 38.8C557.06 37.84 557.887 37.1467 558.874 36.72C559.86 36.2933 560.94 36.08 562.114 36.08C563.66 36.08 564.967 36.4133 566.034 37.08C567.127 37.7467 567.954 38.6933 568.514 39.92C569.1 41.12 569.394 42.5467 569.394 44.2V58H563.394V46.2C563.394 45.0533 563.3 44.08 563.114 43.28C562.927 42.48 562.594 41.88 562.114 41.48C561.634 41.0533 560.967 40.84 560.114 40.84C558.86 40.84 557.9 41.3067 557.234 42.24C556.567 43.1467 556.234 44.4667 556.234 46.2V58H550.234ZM579.619 58.48C577.379 58.48 575.566 57.9733 574.179 56.96C572.792 55.92 572.099 54.48 572.099 52.64C572.099 50.7467 572.686 49.2933 573.859 48.28C575.059 47.24 576.819 46.48 579.139 46L586.059 44.64C586.059 43.2533 585.739 42.2133 585.099 41.52C584.486 40.8 583.579 40.44 582.379 40.44C581.259 40.44 580.379 40.7067 579.739 41.24C579.099 41.7467 578.672 42.5067 578.459 43.52L572.459 43.24C572.859 40.8933 573.912 39.12 575.619 37.92C577.352 36.6933 579.606 36.08 582.379 36.08C585.579 36.08 587.992 36.84 589.619 38.36C591.246 39.88 592.059 42.1067 592.059 45.04V52.36C592.059 52.9733 592.152 53.3867 592.339 53.6C592.552 53.7867 592.859 53.88 593.259 53.88H593.859V58C593.672 58.0533 593.366 58.1067 592.939 58.16C592.539 58.2133 592.126 58.24 591.699 58.24C590.872 58.24 590.086 58.0933 589.339 57.8C588.592 57.5067 587.992 57.0133 587.539 56.32C587.112 55.6 586.899 54.5867 586.899 53.28L587.419 53.68C587.152 54.64 586.672 55.48 585.979 56.2C585.312 56.92 584.432 57.48 583.339 57.88C582.272 58.28 581.032 58.48 579.619 58.48ZM581.059 54.36C582.046 54.36 582.912 54.1733 583.659 53.8C584.406 53.4 584.992 52.8267 585.419 52.08C585.846 51.3333 586.059 50.4533 586.059 49.44V48.4L581.179 49.44C580.192 49.6267 579.459 49.9467 578.979 50.4C578.499 50.8267 578.259 51.3867 578.259 52.08C578.259 52.8 578.499 53.36 578.979 53.76C579.459 54.16 580.152 54.36 581.059 54.36ZM601.815 49.04C601.815 46.88 602.108 45.24 602.695 44.12C603.281 42.9733 604.295 42.0533 605.735 41.36C606.721 40.8533 607.455 40.4133 607.935 40.04C608.441 39.64 608.775 39.2267 608.935 38.8C609.095 38.3733 609.175 37.8667 609.175 37.28C609.175 36.2933 608.841 35.4933 608.175 34.88C607.535 34.24 606.615 33.92 605.415 33.92C604.055 33.92 602.988 34.2933 602.215 35.04C601.468 35.76 601.015 36.84 600.855 38.28L594.615 37.96C594.775 36.2267 595.281 34.68 596.135 33.32C597.015 31.96 598.228 30.8933 599.775 30.12C601.348 29.3467 603.228 28.96 605.415 28.96C607.548 28.96 609.348 29.32 610.815 30.04C612.308 30.76 613.428 31.7467 614.175 33C614.921 34.2533 615.295 35.68 615.295 37.28C615.295 38.4267 615.135 39.4 614.815 40.2C614.495 41 613.975 41.72 613.255 42.36C612.535 43 611.575 43.6533 610.375 44.32C609.388 44.9067 608.695 45.52 608.295 46.16C607.921 46.8 607.735 47.76 607.735 49.04H601.815ZM601.535 58V51.88H608.055V58H601.535Z" fill="black"/>
<path d="M454.63 220L462.31 198.7H465.79L473.47 220H470.65L468.52 213.94H459.58L457.45 220H454.63ZM460.45 211.42H467.65L464.05 200.95L460.45 211.42ZM482.358 220.36C480.878 220.36 479.588 220.02 478.488 219.34C477.408 218.66 476.568 217.7 475.968 216.46C475.368 215.2 475.068 213.73 475.068 212.05C475.068 210.37 475.368 208.91 475.968 207.67C476.568 206.43 477.408 205.47 478.488 204.79C479.588 204.09 480.878 203.74 482.358 203.74C483.578 203.74 484.658 203.96 485.598 204.4C486.558 204.82 487.338 205.44 487.938 206.26C488.538 207.08 488.928 208.08 489.108 209.26L486.468 209.44C486.288 208.38 485.828 207.57 485.088 207.01C484.348 206.43 483.438 206.14 482.358 206.14C480.898 206.14 479.758 206.67 478.938 207.73C478.118 208.77 477.708 210.21 477.708 212.05C477.708 213.89 478.118 215.34 478.938 216.4C479.758 217.44 480.898 217.96 482.358 217.96C483.438 217.96 484.348 217.66 485.088 217.06C485.828 216.46 486.288 215.56 486.468 214.36L489.108 214.54C488.928 215.72 488.538 216.75 487.938 217.63C487.338 218.49 486.558 219.16 485.598 219.64C484.658 220.12 483.578 220.36 482.358 220.36ZM498.764 220.36C497.264 220.36 495.964 220.02 494.864 219.34C493.784 218.66 492.944 217.7 492.344 216.46C491.764 215.2 491.474 213.73 491.474 212.05C491.474 210.37 491.764 208.91 492.344 207.67C492.944 206.43 493.774 205.47 494.834 204.79C495.914 204.09 497.184 203.74 498.644 203.74C500.024 203.74 501.244 204.07 502.304 204.73C503.364 205.37 504.184 206.31 504.764 207.55C505.364 208.79 505.664 210.3 505.664 212.08V212.83H494.114C494.214 214.53 494.664 215.81 495.464 216.67C496.284 217.53 497.384 217.96 498.764 217.96C499.804 217.96 500.654 217.72 501.314 217.24C501.994 216.74 502.464 216.09 502.724 215.29L505.424 215.5C505.004 216.92 504.204 218.09 503.024 219.01C501.864 219.91 500.444 220.36 498.764 220.36ZM494.114 210.61H502.904C502.784 209.07 502.334 207.94 501.554 207.22C500.794 206.5 499.824 206.14 498.644 206.14C497.424 206.14 496.414 206.52 495.614 207.28C494.834 208.02 494.334 209.13 494.114 210.61ZM515.219 220.36C513.799 220.36 512.589 220.13 511.589 219.67C510.609 219.21 509.839 218.58 509.279 217.78C508.739 216.96 508.429 216.03 508.349 214.99L510.989 214.81C511.149 215.77 511.559 216.54 512.219 217.12C512.879 217.68 513.879 217.96 515.219 217.96C516.299 217.96 517.159 217.79 517.799 217.45C518.459 217.09 518.789 216.52 518.789 215.74C518.789 215.32 518.689 214.97 518.489 214.69C518.289 214.41 517.899 214.17 517.319 213.97C516.739 213.75 515.879 213.54 514.739 213.34C513.219 213.06 512.019 212.72 511.139 212.32C510.279 211.9 509.659 211.39 509.279 210.79C508.919 210.17 508.739 209.44 508.739 208.6C508.739 207.18 509.259 206.02 510.299 205.12C511.339 204.2 512.819 203.74 514.739 203.74C516.039 203.74 517.129 203.98 518.009 204.46C518.909 204.92 519.609 205.54 520.109 206.32C520.629 207.08 520.969 207.92 521.129 208.84L518.489 209.02C518.369 208.46 518.149 207.97 517.829 207.55C517.509 207.11 517.089 206.77 516.569 206.53C516.049 206.27 515.429 206.14 514.709 206.14C513.569 206.14 512.729 206.36 512.189 206.8C511.649 207.24 511.379 207.8 511.379 208.48C511.379 209 511.499 209.43 511.739 209.77C511.999 210.09 512.409 210.36 512.969 210.58C513.529 210.78 514.279 210.96 515.219 211.12C516.839 211.4 518.099 211.74 518.999 212.14C519.899 212.54 520.529 213.03 520.889 213.61C521.249 214.19 521.429 214.9 521.429 215.74C521.429 216.72 521.149 217.56 520.589 218.26C520.049 218.94 519.309 219.46 518.369 219.82C517.449 220.18 516.399 220.36 515.219 220.36ZM530.981 220.36C529.561 220.36 528.351 220.13 527.351 219.67C526.371 219.21 525.601 218.58 525.041 217.78C524.501 216.96 524.191 216.03 524.111 214.99L526.751 214.81C526.911 215.77 527.321 216.54 527.981 217.12C528.641 217.68 529.641 217.96 530.981 217.96C532.061 217.96 532.921 217.79 533.561 217.45C534.221 217.09 534.551 216.52 534.551 215.74C534.551 215.32 534.451 214.97 534.251 214.69C534.051 214.41 533.661 214.17 533.081 213.97C532.501 213.75 531.641 213.54 530.501 213.34C528.981 213.06 527.781 212.72 526.901 212.32C526.041 211.9 525.421 211.39 525.041 210.79C524.681 210.17 524.501 209.44 524.501 208.6C524.501 207.18 525.021 206.02 526.061 205.12C527.101 204.2 528.581 203.74 530.501 203.74C531.801 203.74 532.891 203.98 533.771 204.46C534.671 204.92 535.371 205.54 535.871 206.32C536.391 207.08 536.731 207.92 536.891 208.84L534.251 209.02C534.131 208.46 533.911 207.97 533.591 207.55C533.271 207.11 532.851 206.77 532.331 206.53C531.811 206.27 531.191 206.14 530.471 206.14C529.331 206.14 528.491 206.36 527.951 206.8C527.411 207.24 527.141 207.8 527.141 208.48C527.141 209 527.261 209.43 527.501 209.77C527.761 210.09 528.171 210.36 528.731 210.58C529.291 210.78 530.041 210.96 530.981 211.12C532.601 211.4 533.861 211.74 534.761 212.14C535.661 212.54 536.291 213.03 536.651 213.61C537.011 214.19 537.191 214.9 537.191 215.74C537.191 216.72 536.911 217.56 536.351 218.26C535.811 218.94 535.071 219.46 534.131 219.82C533.211 220.18 532.161 220.36 530.981 220.36ZM547.163 220.36C545.703 220.36 544.423 220.02 543.323 219.34C542.223 218.66 541.373 217.7 540.773 216.46C540.173 215.2 539.873 213.73 539.873 212.05C539.873 210.35 540.173 208.88 540.773 207.64C541.373 206.4 542.223 205.44 543.323 204.76C544.423 204.08 545.703 203.74 547.163 203.74C548.623 203.74 549.893 204.08 550.973 204.76C552.073 205.44 552.923 206.4 553.523 207.64C554.123 208.88 554.423 210.35 554.423 212.05C554.423 213.73 554.123 215.2 553.523 216.46C552.923 217.7 552.073 218.66 550.973 219.34C549.893 220.02 548.623 220.36 547.163 220.36ZM547.163 217.96C548.623 217.96 549.753 217.44 550.553 216.4C551.373 215.34 551.783 213.89 551.783 212.05C551.783 210.21 551.373 208.77 550.553 207.73C549.753 206.67 548.623 206.14 547.163 206.14C545.703 206.14 544.563 206.67 543.743 207.73C542.923 208.77 542.513 210.21 542.513 212.05C542.513 213.89 542.923 215.34 543.743 216.4C544.563 217.44 545.703 217.96 547.163 217.96ZM570.116 220.36C568.476 220.36 567.166 219.98 566.186 219.22C565.226 218.46 564.746 217.4 564.746 216.04C564.746 214.68 565.146 213.61 565.946 212.83C566.746 212.05 568.016 211.5 569.756 211.18L575.396 210.13C575.396 208.79 575.076 207.79 574.436 207.13C573.816 206.47 572.876 206.14 571.616 206.14C570.516 206.14 569.646 206.39 569.006 206.89C568.366 207.37 567.926 208.07 567.686 208.99L565.016 208.78C565.316 207.28 566.036 206.07 567.176 205.15C568.336 204.21 569.816 203.74 571.616 203.74C573.656 203.74 575.216 204.32 576.296 205.48C577.376 206.62 577.916 208.2 577.916 210.22V216.79C577.916 217.15 577.976 217.41 578.096 217.57C578.236 217.71 578.456 217.78 578.756 217.78H579.386V220C579.306 220.02 579.176 220.03 578.996 220.03C578.816 220.05 578.626 220.06 578.426 220.06C577.706 220.06 577.116 219.95 576.656 219.73C576.216 219.49 575.896 219.13 575.696 218.65C575.496 218.15 575.396 217.5 575.396 216.7L575.696 216.76C575.556 217.44 575.216 218.06 574.676 218.62C574.136 219.16 573.466 219.59 572.666 219.91C571.866 220.21 571.016 220.36 570.116 220.36ZM570.356 218.14C571.416 218.14 572.316 217.94 573.056 217.54C573.816 217.12 574.396 216.56 574.796 215.86C575.196 215.14 575.396 214.34 575.396 213.46V212.32L570.236 213.28C569.156 213.48 568.406 213.79 567.986 214.21C567.586 214.61 567.386 215.14 567.386 215.8C567.386 216.54 567.646 217.12 568.166 217.54C568.706 217.94 569.436 218.14 570.356 218.14ZM593.585 220V204.22H589.145V202H590.945C591.725 202 592.345 201.9 592.805 201.7C593.285 201.5 593.625 201.16 593.825 200.68C594.025 200.2 594.125 199.54 594.125 198.7H596.165V220H593.585ZM615.659 220.36C614.159 220.36 612.859 220.02 611.759 219.34C610.679 218.66 609.839 217.7 609.239 216.46C608.659 215.2 608.369 213.73 608.369 212.05C608.369 210.37 608.659 208.91 609.239 207.67C609.839 206.43 610.669 205.47 611.729 204.79C612.809 204.09 614.079 203.74 615.539 203.74C616.919 203.74 618.139 204.07 619.199 204.73C620.259 205.37 621.079 206.31 621.659 207.55C622.259 208.79 622.559 210.3 622.559 212.08V212.83H611.009C611.109 214.53 611.559 215.81 612.359 216.67C613.179 217.53 614.279 217.96 615.659 217.96C616.699 217.96 617.549 217.72 618.209 217.24C618.889 216.74 619.359 216.09 619.619 215.29L622.319 215.5C621.899 216.92 621.099 218.09 619.919 219.01C618.759 219.91 617.339 220.36 615.659 220.36ZM611.009 210.61H619.799C619.679 209.07 619.229 207.94 618.449 207.22C617.689 206.5 616.719 206.14 615.539 206.14C614.319 206.14 613.309 206.52 612.509 207.28C611.729 208.02 611.229 209.13 611.009 210.61ZM633.085 220.36C631.985 220.36 631.005 220.12 630.145 219.64C629.285 219.14 628.625 218.46 628.165 217.6L628.075 220H625.795V198.7H628.315V206.32C628.715 205.66 629.335 205.07 630.175 204.55C631.015 204.01 631.985 203.74 633.085 203.74C634.485 203.74 635.695 204.08 636.715 204.76C637.735 205.44 638.525 206.4 639.085 207.64C639.645 208.88 639.925 210.35 639.925 212.05C639.925 213.75 639.645 215.22 639.085 216.46C638.525 217.7 637.735 218.66 636.715 219.34C635.695 220.02 634.485 220.36 633.085 220.36ZM632.935 217.96C634.275 217.96 635.335 217.43 636.115 216.37C636.895 215.31 637.285 213.87 637.285 212.05C637.285 210.21 636.895 208.77 636.115 207.73C635.335 206.67 634.295 206.14 632.995 206.14C632.015 206.14 631.175 206.38 630.475 206.86C629.775 207.32 629.235 207.99 628.855 208.87C628.495 209.75 628.315 210.81 628.315 212.05C628.315 213.25 628.495 214.3 628.855 215.2C629.235 216.08 629.765 216.76 630.445 217.24C631.145 217.72 631.975 217.96 632.935 217.96ZM649.878 220.36C648.418 220.36 647.138 220.02 646.038 219.34C644.938 218.66 644.088 217.7 643.488 216.46C642.888 215.2 642.588 213.73 642.588 212.05C642.588 210.35 642.888 208.88 643.488 207.64C644.088 206.4 644.938 205.44 646.038 204.76C647.138 204.08 648.418 203.74 649.878 203.74C651.338 203.74 652.608 204.08 653.688 204.76C654.788 205.44 655.638 206.4 656.238 207.64C656.838 208.88 657.138 210.35 657.138 212.05C657.138 213.73 656.838 215.2 656.238 216.46C655.638 217.7 654.788 218.66 653.688 219.34C652.608 220.02 651.338 220.36 649.878 220.36ZM649.878 217.96C651.338 217.96 652.468 217.44 653.268 216.4C654.088 215.34 654.498 213.89 654.498 212.05C654.498 210.21 654.088 208.77 653.268 207.73C652.468 206.67 651.338 206.14 649.878 206.14C648.418 206.14 647.278 206.67 646.458 207.73C645.638 208.77 645.228 210.21 645.228 212.05C645.228 213.89 645.638 215.34 646.458 216.4C647.278 217.44 648.418 217.96 649.878 217.96ZM667.104 220.36C665.644 220.36 664.364 220.02 663.264 219.34C662.164 218.66 661.314 217.7 660.714 216.46C660.114 215.2 659.814 213.73 659.814 212.05C659.814 210.35 660.114 208.88 660.714 207.64C661.314 206.4 662.164 205.44 663.264 204.76C664.364 204.08 665.644 203.74 667.104 203.74C668.564 203.74 669.834 204.08 670.914 204.76C672.014 205.44 672.864 206.4 673.464 207.64C674.064 208.88 674.364 210.35 674.364 212.05C674.364 213.73 674.064 215.2 673.464 216.46C672.864 217.7 672.014 218.66 670.914 219.34C669.834 220.02 668.564 220.36 667.104 220.36ZM667.104 217.96C668.564 217.96 669.694 217.44 670.494 216.4C671.314 215.34 671.724 213.89 671.724 212.05C671.724 210.21 671.314 208.77 670.494 207.73C669.694 206.67 668.564 206.14 667.104 206.14C665.644 206.14 664.504 206.67 663.684 207.73C662.864 208.77 662.454 210.21 662.454 212.05C662.454 213.89 662.864 215.34 663.684 216.4C664.504 217.44 665.644 217.96 667.104 217.96ZM677.591 220V198.7H680.111V212.65L687.851 204.1H691.211L684.941 210.85L691.481 220H688.421L683.231 212.56L680.111 215.86V220H677.591ZM702.787 224.5V204.1H705.127L705.187 207.52L704.827 207.34C705.227 206.16 705.887 205.27 706.807 204.67C707.747 204.05 708.827 203.74 710.047 203.74C711.627 203.74 712.917 204.13 713.917 204.91C714.937 205.69 715.687 206.71 716.167 207.97C716.667 209.23 716.917 210.59 716.917 212.05C716.917 213.51 716.667 214.87 716.167 216.13C715.687 217.39 714.937 218.41 713.917 219.19C712.917 219.97 711.627 220.36 710.047 220.36C709.227 220.36 708.457 220.22 707.737 219.94C707.037 219.66 706.437 219.27 705.937 218.77C705.457 218.27 705.127 217.68 704.947 217L705.307 216.58V224.5H702.787ZM709.807 217.96C711.187 217.96 712.277 217.44 713.077 216.4C713.877 215.36 714.277 213.91 714.277 212.05C714.277 210.19 713.877 208.74 713.077 207.7C712.277 206.66 711.187 206.14 709.807 206.14C708.887 206.14 708.087 206.36 707.407 206.8C706.747 207.24 706.227 207.9 705.847 208.78C705.487 209.66 705.307 210.75 705.307 212.05C705.307 213.35 705.487 214.44 705.847 215.32C706.207 216.2 706.727 216.86 707.407 217.3C708.087 217.74 708.887 217.96 709.807 217.96ZM726.87 220.36C725.41 220.36 724.13 220.02 723.03 219.34C721.93 218.66 721.08 217.7 720.48 216.46C719.88 215.2 719.58 213.73 719.58 212.05C719.58 210.35 719.88 208.88 720.48 207.64C721.08 206.4 721.93 205.44 723.03 204.76C724.13 204.08 725.41 203.74 726.87 203.74C728.33 203.74 729.6 204.08 730.68 204.76C731.78 205.44 732.63 206.4 733.23 207.64C733.83 208.88 734.13 210.35 734.13 212.05C734.13 213.73 733.83 215.2 733.23 216.46C732.63 217.7 731.78 218.66 730.68 219.34C729.6 220.02 728.33 220.36 726.87 220.36ZM726.87 217.96C728.33 217.96 729.46 217.44 730.26 216.4C731.08 215.34 731.49 213.89 731.49 212.05C731.49 210.21 731.08 208.77 730.26 207.73C729.46 206.67 728.33 206.14 726.87 206.14C725.41 206.14 724.27 206.67 723.45 207.73C722.63 208.77 722.22 210.21 722.22 212.05C722.22 213.89 722.63 215.34 723.45 216.4C724.27 217.44 725.41 217.96 726.87 217.96ZM737.796 220V204.1H740.016L740.136 208.12L739.896 208.03C740.096 206.67 740.526 205.68 741.186 205.06C741.866 204.42 742.766 204.1 743.886 204.1H745.446V206.5H743.916C743.116 206.5 742.446 206.65 741.906 206.95C741.386 207.23 740.986 207.66 740.706 208.24C740.446 208.8 740.316 209.52 740.316 210.4V220H737.796ZM756.752 220V204.1H759.062L759.152 208.12L758.792 208C758.972 207.12 759.282 206.37 759.722 205.75C760.182 205.11 760.742 204.62 761.402 204.28C762.062 203.92 762.792 203.74 763.592 203.74C764.972 203.74 766.092 204.12 766.952 204.88C767.832 205.64 768.382 206.7 768.602 208.06L768.122 208.03C768.282 207.11 768.572 206.34 768.992 205.72C769.432 205.08 769.992 204.59 770.672 204.25C771.352 203.91 772.132 203.74 773.012 203.74C774.152 203.74 775.112 203.98 775.892 204.46C776.672 204.92 777.262 205.6 777.662 206.5C778.062 207.4 778.262 208.49 778.262 209.77V220H775.742V210.31C775.742 208.87 775.462 207.79 774.902 207.07C774.342 206.33 773.512 205.96 772.412 205.96C771.672 205.96 771.022 206.14 770.462 206.5C769.922 206.86 769.502 207.38 769.202 208.06C768.902 208.72 768.752 209.53 768.752 210.49V220H766.232V210.49C766.232 209.07 765.982 207.96 765.482 207.16C764.982 206.36 764.142 205.96 762.962 205.96C762.222 205.96 761.572 206.14 761.012 206.5C760.472 206.86 760.042 207.38 759.722 208.06C759.422 208.74 759.272 209.55 759.272 210.49V220H756.752ZM788.921 220.36C787.421 220.36 786.121 220.02 785.021 219.34C783.941 218.66 783.101 217.7 782.501 216.46C781.921 215.2 781.631 213.73 781.631 212.05C781.631 210.37 781.921 208.91 782.501 207.67C783.101 206.43 783.931 205.47 784.991 204.79C786.071 204.09 787.341 203.74 788.801 203.74C790.181 203.74 791.401 204.07 792.461 204.73C793.521 205.37 794.341 206.31 794.921 207.55C795.521 208.79 795.821 210.3 795.821 212.08V212.83H784.271C784.371 214.53 784.821 215.81 785.621 216.67C786.441 217.53 787.541 217.96 788.921 217.96C789.961 217.96 790.811 217.72 791.471 217.24C792.151 216.74 792.621 216.09 792.881 215.29L795.581 215.5C795.161 216.92 794.361 218.09 793.181 219.01C792.021 219.91 790.601 220.36 788.921 220.36ZM784.271 210.61H793.061C792.941 209.07 792.491 207.94 791.711 207.22C790.951 206.5 789.981 206.14 788.801 206.14C787.581 206.14 786.571 206.52 785.771 207.28C784.991 208.02 784.491 209.13 784.271 210.61ZM784.811 202.12L787.511 198.13H790.331L793.031 202.12H790.931L788.681 199.12H789.161L786.911 202.12H784.811ZM805.376 220.36C803.956 220.36 802.746 220.13 801.746 219.67C800.766 219.21 799.996 218.58 799.436 217.78C798.896 216.96 798.586 216.03 798.506 214.99L801.146 214.81C801.306 215.77 801.716 216.54 802.376 217.12C803.036 217.68 804.036 217.96 805.376 217.96C806.456 217.96 807.316 217.79 807.956 217.45C808.616 217.09 808.946 216.52 808.946 215.74C808.946 215.32 808.846 214.97 808.646 214.69C808.446 214.41 808.056 214.17 807.476 213.97C806.896 213.75 806.036 213.54 804.896 213.34C803.376 213.06 802.176 212.72 801.296 212.32C800.436 211.9 799.816 211.39 799.436 210.79C799.076 210.17 798.896 209.44 798.896 208.6C798.896 207.18 799.416 206.02 800.456 205.12C801.496 204.2 802.976 203.74 804.896 203.74C806.196 203.74 807.286 203.98 808.166 204.46C809.066 204.92 809.766 205.54 810.266 206.32C810.786 207.08 811.126 207.92 811.286 208.84L808.646 209.02C808.526 208.46 808.306 207.97 807.986 207.55C807.666 207.11 807.246 206.77 806.726 206.53C806.206 206.27 805.586 206.14 804.866 206.14C803.726 206.14 802.886 206.36 802.346 206.8C801.806 207.24 801.536 207.8 801.536 208.48C801.536 209 801.656 209.43 801.896 209.77C802.156 210.09 802.566 210.36 803.126 210.58C803.686 210.78 804.436 210.96 805.376 211.12C806.996 211.4 808.256 211.74 809.156 212.14C810.056 212.54 810.686 213.03 811.046 213.61C811.406 214.19 811.586 214.9 811.586 215.74C811.586 216.72 811.306 217.56 810.746 218.26C810.206 218.94 809.466 219.46 808.526 219.82C807.606 220.18 806.556 220.36 805.376 220.36Z" fill="#6B7280"/>
<path d="M539.04 290.48C537.14 290.48 535.47 290.04 534.03 289.16C532.59 288.26 531.47 286.98 530.67 285.32C529.87 283.66 529.47 281.68 529.47 279.38C529.47 277.08 529.87 275.1 530.67 273.44C531.47 271.76 532.59 270.47 534.03 269.57C535.47 268.67 537.14 268.22 539.04 268.22C541.62 268.22 543.62 268.87 545.04 270.17C546.46 271.47 547.39 273.24 547.83 275.48L545.1 275.66C544.8 274.14 544.16 272.94 543.18 272.06C542.2 271.18 540.82 270.74 539.04 270.74C537.68 270.74 536.48 271.09 535.44 271.79C534.42 272.47 533.62 273.46 533.04 274.76C532.46 276.04 532.17 277.58 532.17 279.38C532.17 281.18 532.46 282.72 533.04 284C533.62 285.28 534.42 286.26 535.44 286.94C536.48 287.62 537.68 287.96 539.04 287.96C540.9 287.96 542.34 287.48 543.36 286.52C544.38 285.54 545.02 284.22 545.28 282.56L548.01 282.74C547.75 284.28 547.24 285.63 546.48 286.79C545.72 287.95 544.71 288.86 543.45 289.52C542.21 290.16 540.74 290.48 539.04 290.48ZM556.948 290.36C555.368 290.36 554.098 289.83 553.138 288.77C552.198 287.69 551.728 286.21 551.728 284.33V274.1H554.248V283.64C554.248 285.18 554.518 286.32 555.058 287.06C555.618 287.78 556.468 288.14 557.608 288.14C558.868 288.14 559.858 287.74 560.578 286.94C561.298 286.12 561.658 285 561.658 283.58V274.1H564.178V290H561.778V286.07L562.168 286.28C561.848 287.58 561.238 288.59 560.338 289.31C559.438 290.01 558.308 290.36 556.948 290.36ZM568.984 290V274.1H571.204L571.324 278.12L571.084 278.03C571.284 276.67 571.714 275.68 572.374 275.06C573.054 274.42 573.954 274.1 575.074 274.1H576.634V276.5H575.104C574.304 276.5 573.634 276.65 573.094 276.95C572.574 277.23 572.174 277.66 571.894 278.24C571.634 278.8 571.504 279.52 571.504 280.4V290H568.984ZM583.911 290.36C582.271 290.36 580.961 289.98 579.981 289.22C579.021 288.46 578.541 287.4 578.541 286.04C578.541 284.68 578.941 283.61 579.741 282.83C580.541 282.05 581.811 281.5 583.551 281.18L589.191 280.13C589.191 278.79 588.871 277.79 588.231 277.13C587.611 276.47 586.671 276.14 585.411 276.14C584.311 276.14 583.441 276.39 582.801 276.89C582.161 277.37 581.721 278.07 581.481 278.99L578.811 278.78C579.111 277.28 579.831 276.07 580.971 275.15C582.131 274.21 583.611 273.74 585.411 273.74C587.451 273.74 589.011 274.32 590.091 275.48C591.171 276.62 591.711 278.2 591.711 280.22V286.79C591.711 287.15 591.771 287.41 591.891 287.57C592.031 287.71 592.251 287.78 592.551 287.78H593.181V290C593.101 290.02 592.971 290.03 592.791 290.03C592.611 290.05 592.421 290.06 592.221 290.06C591.501 290.06 590.911 289.95 590.451 289.73C590.011 289.49 589.691 289.13 589.491 288.65C589.291 288.15 589.191 287.5 589.191 286.7L589.491 286.76C589.351 287.44 589.011 288.06 588.471 288.62C587.931 289.16 587.261 289.59 586.461 289.91C585.661 290.21 584.811 290.36 583.911 290.36ZM584.151 288.14C585.211 288.14 586.111 287.94 586.851 287.54C587.611 287.12 588.191 286.56 588.591 285.86C588.991 285.14 589.191 284.34 589.191 283.46V282.32L584.031 283.28C582.951 283.48 582.201 283.79 581.781 284.21C581.381 284.61 581.181 285.14 581.181 285.8C581.181 286.54 581.441 287.12 581.961 287.54C582.501 287.94 583.231 288.14 584.151 288.14ZM602.077 290.36C600.697 290.36 599.497 290.02 598.477 289.34C597.477 288.66 596.707 287.7 596.167 286.46C595.627 285.22 595.357 283.75 595.357 282.05C595.357 280.35 595.627 278.88 596.167 277.64C596.707 276.4 597.477 275.44 598.477 274.76C599.497 274.08 600.697 273.74 602.077 273.74C603.137 273.74 604.107 273.97 604.987 274.43C605.867 274.87 606.527 275.5 606.967 276.32V268.7H609.487V290H607.207L607.117 287.6C606.677 288.46 606.007 289.14 605.107 289.64C604.207 290.12 603.197 290.36 602.077 290.36ZM602.587 287.96C603.527 287.96 604.317 287.72 604.957 287.24C605.617 286.76 606.117 286.08 606.457 285.2C606.797 284.3 606.967 283.25 606.967 282.05C606.967 280.81 606.797 279.75 606.457 278.87C606.117 277.99 605.617 277.32 604.957 276.86C604.317 276.38 603.527 276.14 602.587 276.14C601.187 276.14 600.067 276.67 599.227 277.73C598.407 278.77 597.997 280.21 597.997 282.05C597.997 283.87 598.407 285.31 599.227 286.37C600.067 287.43 601.187 287.96 602.587 287.96ZM620.577 290.36C619.117 290.36 617.837 290.02 616.737 289.34C615.637 288.66 614.787 287.7 614.187 286.46C613.587 285.2 613.287 283.73 613.287 282.05C613.287 280.35 613.587 278.88 614.187 277.64C614.787 276.4 615.637 275.44 616.737 274.76C617.837 274.08 619.117 273.74 620.577 273.74C622.037 273.74 623.307 274.08 624.387 274.76C625.487 275.44 626.337 276.4 626.937 277.64C627.537 278.88 627.837 280.35 627.837 282.05C627.837 283.73 627.537 285.2 626.937 286.46C626.337 287.7 625.487 288.66 624.387 289.34C623.307 290.02 622.037 290.36 620.577 290.36ZM620.577 287.96C622.037 287.96 623.167 287.44 623.967 286.4C624.787 285.34 625.197 283.89 625.197 282.05C625.197 280.21 624.787 278.77 623.967 277.73C623.167 276.67 622.037 276.14 620.577 276.14C619.117 276.14 617.977 276.67 617.157 277.73C616.337 278.77 615.927 280.21 615.927 282.05C615.927 283.89 616.337 285.34 617.157 286.4C617.977 287.44 619.117 287.96 620.577 287.96ZM631.504 290V274.1H633.724L633.844 278.12L633.604 278.03C633.804 276.67 634.234 275.68 634.894 275.06C635.574 274.42 636.474 274.1 637.594 274.1H639.154V276.5H637.624C636.824 276.5 636.154 276.65 635.614 276.95C635.094 277.23 634.694 277.66 634.414 278.24C634.154 278.8 634.024 279.52 634.024 280.4V290H631.504ZM642.519 290V274.1H645.039V290H642.519ZM642.459 271.61V268.67H645.099V271.61H642.459ZM654.223 290.36C652.583 290.36 651.273 289.98 650.293 289.22C649.333 288.46 648.853 287.4 648.853 286.04C648.853 284.68 649.253 283.61 650.053 282.83C650.853 282.05 652.123 281.5 653.863 281.18L659.503 280.13C659.503 278.79 659.183 277.79 658.543 277.13C657.923 276.47 656.983 276.14 655.723 276.14C654.623 276.14 653.753 276.39 653.113 276.89C652.473 277.37 652.033 278.07 651.793 278.99L649.123 278.78C649.423 277.28 650.143 276.07 651.283 275.15C652.443 274.21 653.923 273.74 655.723 273.74C657.763 273.74 659.323 274.32 660.403 275.48C661.483 276.62 662.023 278.2 662.023 280.22V286.79C662.023 287.15 662.083 287.41 662.203 287.57C662.343 287.71 662.563 287.78 662.863 287.78H663.493V290C663.413 290.02 663.283 290.03 663.103 290.03C662.923 290.05 662.733 290.06 662.533 290.06C661.813 290.06 661.223 289.95 660.763 289.73C660.323 289.49 660.003 289.13 659.803 288.65C659.603 288.15 659.503 287.5 659.503 286.7L659.803 286.76C659.663 287.44 659.323 288.06 658.783 288.62C658.243 289.16 657.573 289.59 656.773 289.91C655.973 290.21 655.123 290.36 654.223 290.36ZM654.463 288.14C655.523 288.14 656.423 287.94 657.163 287.54C657.923 287.12 658.503 286.56 658.903 285.86C659.303 285.14 659.503 284.34 659.503 283.46V282.32L654.343 283.28C653.263 283.48 652.513 283.79 652.093 284.21C651.693 284.61 651.493 285.14 651.493 285.8C651.493 286.54 651.753 287.12 652.273 287.54C652.813 287.94 653.543 288.14 654.463 288.14ZM680.753 290.36C679.253 290.36 677.953 290.02 676.853 289.34C675.773 288.66 674.933 287.7 674.333 286.46C673.753 285.2 673.463 283.73 673.463 282.05C673.463 280.37 673.753 278.91 674.333 277.67C674.933 276.43 675.763 275.47 676.823 274.79C677.903 274.09 679.173 273.74 680.633 273.74C682.013 273.74 683.233 274.07 684.293 274.73C685.353 275.37 686.173 276.31 686.753 277.55C687.353 278.79 687.653 280.3 687.653 282.08V282.83H676.103C676.203 284.53 676.653 285.81 677.453 286.67C678.273 287.53 679.373 287.96 680.753 287.96C681.793 287.96 682.643 287.72 683.303 287.24C683.983 286.74 684.453 286.09 684.713 285.29L687.413 285.5C686.993 286.92 686.193 288.09 685.013 289.01C683.853 289.91 682.433 290.36 680.753 290.36ZM676.103 280.61H684.893C684.773 279.07 684.323 277.94 683.543 277.22C682.783 276.5 681.813 276.14 680.633 276.14C679.413 276.14 678.403 276.52 677.603 277.28C676.823 278.02 676.323 279.13 676.103 280.61ZM697.208 290.36C695.788 290.36 694.578 290.13 693.578 289.67C692.598 289.21 691.828 288.58 691.268 287.78C690.728 286.96 690.418 286.03 690.338 284.99L692.978 284.81C693.138 285.77 693.548 286.54 694.208 287.12C694.868 287.68 695.868 287.96 697.208 287.96C698.288 287.96 699.148 287.79 699.788 287.45C700.448 287.09 700.778 286.52 700.778 285.74C700.778 285.32 700.678 284.97 700.478 284.69C700.278 284.41 699.888 284.17 699.308 283.97C698.728 283.75 697.868 283.54 696.728 283.34C695.208 283.06 694.008 282.72 693.128 282.32C692.268 281.9 691.648 281.39 691.268 280.79C690.908 280.17 690.728 279.44 690.728 278.6C690.728 277.18 691.248 276.02 692.288 275.12C693.328 274.2 694.808 273.74 696.728 273.74C698.028 273.74 699.118 273.98 699.998 274.46C700.898 274.92 701.598 275.54 702.098 276.32C702.618 277.08 702.958 277.92 703.118 278.84L700.478 279.02C700.358 278.46 700.138 277.97 699.818 277.55C699.498 277.11 699.078 276.77 698.558 276.53C698.038 276.27 697.418 276.14 696.698 276.14C695.558 276.14 694.718 276.36 694.178 276.8C693.638 277.24 693.368 277.8 693.368 278.48C693.368 279 693.488 279.43 693.728 279.77C693.988 280.09 694.398 280.36 694.958 280.58C695.518 280.78 696.268 280.96 697.208 281.12C698.828 281.4 700.088 281.74 700.988 282.14C701.888 282.54 702.518 283.03 702.878 283.61C703.238 284.19 703.418 284.9 703.418 285.74C703.418 286.72 703.138 287.56 702.578 288.26C702.038 288.94 701.298 289.46 700.358 289.82C699.438 290.18 698.388 290.36 697.208 290.36ZM707.089 294.5V274.1H709.429L709.489 277.52L709.129 277.34C709.529 276.16 710.189 275.27 711.109 274.67C712.049 274.05 713.129 273.74 714.349 273.74C715.929 273.74 717.219 274.13 718.219 274.91C719.239 275.69 719.989 276.71 720.469 277.97C720.969 279.23 721.219 280.59 721.219 282.05C721.219 283.51 720.969 284.87 720.469 286.13C719.989 287.39 719.239 288.41 718.219 289.19C717.219 289.97 715.929 290.36 714.349 290.36C713.529 290.36 712.759 290.22 712.039 289.94C711.339 289.66 710.739 289.27 710.239 288.77C709.759 288.27 709.429 287.68 709.249 287L709.609 286.58V294.5H707.089ZM714.109 287.96C715.489 287.96 716.579 287.44 717.379 286.4C718.179 285.36 718.579 283.91 718.579 282.05C718.579 280.19 718.179 278.74 717.379 277.7C716.579 276.66 715.489 276.14 714.109 276.14C713.189 276.14 712.389 276.36 711.709 276.8C711.049 277.24 710.529 277.9 710.149 278.78C709.789 279.66 709.609 280.75 709.609 282.05C709.609 283.35 709.789 284.44 710.149 285.32C710.509 286.2 711.029 286.86 711.709 287.3C712.389 287.74 713.189 287.96 714.109 287.96ZM731.173 290.36C729.673 290.36 728.373 290.02 727.273 289.34C726.193 288.66 725.353 287.7 724.753 286.46C724.173 285.2 723.883 283.73 723.883 282.05C723.883 280.37 724.173 278.91 724.753 277.67C725.353 276.43 726.183 275.47 727.243 274.79C728.323 274.09 729.593 273.74 731.053 273.74C732.433 273.74 733.653 274.07 734.713 274.73C735.773 275.37 736.593 276.31 737.173 277.55C737.773 278.79 738.073 280.3 738.073 282.08V282.83H726.523C726.623 284.53 727.073 285.81 727.873 286.67C728.693 287.53 729.793 287.96 731.173 287.96C732.213 287.96 733.063 287.72 733.723 287.24C734.403 286.74 734.873 286.09 735.133 285.29L737.833 285.5C737.413 286.92 736.613 288.09 735.433 289.01C734.273 289.91 732.853 290.36 731.173 290.36ZM726.523 280.61H735.313C735.193 279.07 734.743 277.94 733.963 277.22C733.203 276.5 732.233 276.14 731.053 276.14C729.833 276.14 728.823 276.52 728.023 277.28C727.243 278.02 726.743 279.13 726.523 280.61ZM748.048 290.36C746.568 290.36 745.278 290.02 744.178 289.34C743.098 288.66 742.258 287.7 741.658 286.46C741.058 285.2 740.758 283.73 740.758 282.05C740.758 280.37 741.058 278.91 741.658 277.67C742.258 276.43 743.098 275.47 744.178 274.79C745.278 274.09 746.568 273.74 748.048 273.74C749.268 273.74 750.348 273.96 751.288 274.4C752.248 274.82 753.028 275.44 753.628 276.26C754.228 277.08 754.618 278.08 754.798 279.26L752.158 279.44C751.978 278.38 751.518 277.57 750.778 277.01C750.038 276.43 749.128 276.14 748.048 276.14C746.588 276.14 745.448 276.67 744.628 277.73C743.808 278.77 743.398 280.21 743.398 282.05C743.398 283.89 743.808 285.34 744.628 286.4C745.448 287.44 746.588 287.96 748.048 287.96C749.128 287.96 750.038 287.66 750.778 287.06C751.518 286.46 751.978 285.56 752.158 284.36L754.798 284.54C754.618 285.72 754.228 286.75 753.628 287.63C753.028 288.49 752.248 289.16 751.288 289.64C750.348 290.12 749.268 290.36 748.048 290.36ZM757.714 290V274.1H760.234V290H757.714ZM757.654 271.61V268.67H760.294V271.61H757.654ZM769.419 290.36C767.779 290.36 766.469 289.98 765.489 289.22C764.529 288.46 764.049 287.4 764.049 286.04C764.049 284.68 764.449 283.61 765.249 282.83C766.049 282.05 767.319 281.5 769.059 281.18L774.699 280.13C774.699 278.79 774.379 277.79 773.739 277.13C773.119 276.47 772.179 276.14 770.919 276.14C769.819 276.14 768.949 276.39 768.309 276.89C767.669 277.37 767.229 278.07 766.989 278.99L764.319 278.78C764.619 277.28 765.339 276.07 766.479 275.15C767.639 274.21 769.119 273.74 770.919 273.74C772.959 273.74 774.519 274.32 775.599 275.48C776.679 276.62 777.219 278.2 777.219 280.22V286.79C777.219 287.15 777.279 287.41 777.399 287.57C777.539 287.71 777.759 287.78 778.059 287.78H778.689V290C778.609 290.02 778.479 290.03 778.299 290.03C778.119 290.05 777.929 290.06 777.729 290.06C777.009 290.06 776.419 289.95 775.959 289.73C775.519 289.49 775.199 289.13 774.999 288.65C774.799 288.15 774.699 287.5 774.699 286.7L774.999 286.76C774.859 287.44 774.519 288.06 773.979 288.62C773.439 289.16 772.769 289.59 771.969 289.91C771.169 290.21 770.319 290.36 769.419 290.36ZM769.659 288.14C770.719 288.14 771.619 287.94 772.359 287.54C773.119 287.12 773.699 286.56 774.099 285.86C774.499 285.14 774.699 284.34 774.699 283.46V282.32L769.539 283.28C768.459 283.48 767.709 283.79 767.289 284.21C766.889 284.61 766.689 285.14 766.689 285.8C766.689 286.54 766.949 287.12 767.469 287.54C768.009 287.94 768.739 288.14 769.659 288.14ZM784.975 290C784.055 290 783.305 289.76 782.725 289.28C782.145 288.8 781.855 288.04 781.855 287V268.7H784.375V286.79C784.375 287.11 784.455 287.36 784.615 287.54C784.795 287.7 785.045 287.78 785.365 287.78H786.745V290H784.975Z" fill="#6B7280"/>
<path d="M500.04 360.48C498.14 360.48 496.47 360.04 495.03 359.16C493.59 358.26 492.47 356.98 491.67 355.32C490.87 353.66 490.47 351.68 490.47 349.38C490.47 347.08 490.87 345.1 491.67 343.44C492.47 341.76 493.59 340.47 495.03 339.57C496.47 338.67 498.14 338.22 500.04 338.22C502.62 338.22 504.62 338.87 506.04 340.17C507.46 341.47 508.39 343.24 508.83 345.48L506.1 345.66C505.8 344.14 505.16 342.94 504.18 342.06C503.2 341.18 501.82 340.74 500.04 340.74C498.68 340.74 497.48 341.09 496.44 341.79C495.42 342.47 494.62 343.46 494.04 344.76C493.46 346.04 493.17 347.58 493.17 349.38C493.17 351.18 493.46 352.72 494.04 354C494.62 355.28 495.42 356.26 496.44 356.94C497.48 357.62 498.68 357.96 500.04 357.96C501.9 357.96 503.34 357.48 504.36 356.52C505.38 355.54 506.02 354.22 506.28 352.56L509.01 352.74C508.75 354.28 508.24 355.63 507.48 356.79C506.72 357.95 505.71 358.86 504.45 359.52C503.21 360.16 501.74 360.48 500.04 360.48ZM517.108 360.36C515.468 360.36 514.158 359.98 513.178 359.22C512.218 358.46 511.738 357.4 511.738 356.04C511.738 354.68 512.138 353.61 512.938 352.83C513.738 352.05 515.008 351.5 516.748 351.18L522.388 350.13C522.388 348.79 522.068 347.79 521.428 347.13C520.808 346.47 519.868 346.14 518.608 346.14C517.508 346.14 516.638 346.39 515.998 346.89C515.358 347.37 514.918 348.07 514.678 348.99L512.008 348.78C512.308 347.28 513.028 346.07 514.168 345.15C515.328 344.21 516.808 343.74 518.608 343.74C520.648 343.74 522.208 344.32 523.288 345.48C524.368 346.62 524.908 348.2 524.908 350.22V356.79C524.908 357.15 524.968 357.41 525.088 357.57C525.228 357.71 525.448 357.78 525.748 357.78H526.378V360C526.298 360.02 526.168 360.03 525.988 360.03C525.808 360.05 525.618 360.06 525.418 360.06C524.698 360.06 524.108 359.95 523.648 359.73C523.208 359.49 522.888 359.13 522.688 358.65C522.488 358.15 522.388 357.5 522.388 356.7L522.688 356.76C522.548 357.44 522.208 358.06 521.668 358.62C521.128 359.16 520.458 359.59 519.658 359.91C518.858 360.21 518.008 360.36 517.108 360.36ZM517.348 358.14C518.408 358.14 519.308 357.94 520.048 357.54C520.808 357.12 521.388 356.56 521.788 355.86C522.188 355.14 522.388 354.34 522.388 353.46V352.32L517.228 353.28C516.148 353.48 515.398 353.79 514.978 354.21C514.578 354.61 514.378 355.14 514.378 355.8C514.378 356.54 514.638 357.12 515.158 357.54C515.698 357.94 516.428 358.14 517.348 358.14ZM529.691 360V344.1H532.001L532.091 348.15L531.791 347.88C531.991 346.94 532.341 346.17 532.841 345.57C533.341 344.95 533.941 344.49 534.641 344.19C535.361 343.89 536.131 343.74 536.951 343.74C538.171 343.74 539.171 344.01 539.951 344.55C540.751 345.09 541.341 345.82 541.721 346.74C542.121 347.64 542.321 348.65 542.321 349.77V360H539.801V350.49C539.801 349.51 539.681 348.69 539.441 348.03C539.221 347.35 538.861 346.84 538.361 346.5C537.861 346.14 537.211 345.96 536.411 345.96C535.191 345.96 534.181 346.35 533.381 347.13C532.601 347.89 532.211 349.01 532.211 350.49V360H529.691ZM552.983 360.36C551.503 360.36 550.213 360.02 549.113 359.34C548.033 358.66 547.193 357.7 546.593 356.46C545.993 355.2 545.693 353.73 545.693 352.05C545.693 350.37 545.993 348.91 546.593 347.67C547.193 346.43 548.033 345.47 549.113 344.79C550.213 344.09 551.503 343.74 552.983 343.74C554.203 343.74 555.283 343.96 556.223 344.4C557.183 344.82 557.963 345.44 558.563 346.26C559.163 347.08 559.553 348.08 559.733 349.26L557.093 349.44C556.913 348.38 556.453 347.57 555.713 347.01C554.973 346.43 554.063 346.14 552.983 346.14C551.523 346.14 550.383 346.67 549.563 347.73C548.743 348.77 548.333 350.21 548.333 352.05C548.333 353.89 548.743 355.34 549.563 356.4C550.383 357.44 551.523 357.96 552.983 357.96C554.063 357.96 554.973 357.66 555.713 357.06C556.453 356.46 556.913 355.56 557.093 354.36L559.733 354.54C559.553 355.72 559.163 356.75 558.563 357.63C557.963 358.49 557.183 359.16 556.223 359.64C555.283 360.12 554.203 360.36 552.983 360.36ZM569.389 360.36C567.889 360.36 566.589 360.02 565.489 359.34C564.409 358.66 563.569 357.7 562.969 356.46C562.389 355.2 562.099 353.73 562.099 352.05C562.099 350.37 562.389 348.91 562.969 347.67C563.569 346.43 564.399 345.47 565.459 344.79C566.539 344.09 567.809 343.74 569.269 343.74C570.649 343.74 571.869 344.07 572.929 344.73C573.989 345.37 574.809 346.31 575.389 347.55C575.989 348.79 576.289 350.3 576.289 352.08V352.83H564.739C564.839 354.53 565.289 355.81 566.089 356.67C566.909 357.53 568.009 357.96 569.389 357.96C570.429 357.96 571.279 357.72 571.939 357.24C572.619 356.74 573.089 356.09 573.349 355.29L576.049 355.5C575.629 356.92 574.829 358.09 573.649 359.01C572.489 359.91 571.069 360.36 569.389 360.36ZM564.739 350.61H573.529C573.409 349.07 572.959 347.94 572.179 347.22C571.419 346.5 570.449 346.14 569.269 346.14C568.049 346.14 567.039 346.52 566.239 347.28C565.459 348.02 564.959 349.13 564.739 350.61ZM583.084 360C582.164 360 581.414 359.76 580.834 359.28C580.254 358.8 579.964 358.04 579.964 357V338.7H582.484V356.79C582.484 357.11 582.564 357.36 582.724 357.54C582.904 357.7 583.154 357.78 583.474 357.78H584.854V360H583.084ZM594.468 360.36C592.968 360.36 591.668 360.02 590.568 359.34C589.488 358.66 588.648 357.7 588.048 356.46C587.468 355.2 587.178 353.73 587.178 352.05C587.178 350.37 587.468 348.91 588.048 347.67C588.648 346.43 589.478 345.47 590.538 344.79C591.618 344.09 592.888 343.74 594.348 343.74C595.728 343.74 596.948 344.07 598.008 344.73C599.068 345.37 599.888 346.31 600.468 347.55C601.068 348.79 601.368 350.3 601.368 352.08V352.83H589.818C589.918 354.53 590.368 355.81 591.168 356.67C591.988 357.53 593.088 357.96 594.468 357.96C595.508 357.96 596.358 357.72 597.018 357.24C597.698 356.74 598.168 356.09 598.428 355.29L601.128 355.5C600.708 356.92 599.908 358.09 598.728 359.01C597.568 359.91 596.148 360.36 594.468 360.36ZM589.818 350.61H598.608C598.488 349.07 598.038 347.94 597.258 347.22C596.498 346.5 595.528 346.14 594.348 346.14C593.128 346.14 592.118 346.52 591.318 347.28C590.538 348.02 590.038 349.13 589.818 350.61ZM625.829 364.5H623.309V356.58L623.669 357C623.489 357.68 623.149 358.27 622.649 358.77C622.169 359.27 621.569 359.66 620.849 359.94C620.149 360.22 619.389 360.36 618.569 360.36C616.989 360.36 615.689 359.97 614.669 359.19C613.669 358.41 612.919 357.39 612.419 356.13C611.939 354.87 611.699 353.51 611.699 352.05C611.699 350.59 611.939 349.23 612.419 347.97C612.919 346.71 613.669 345.69 614.669 344.91C615.689 344.13 616.989 343.74 618.569 343.74C619.809 343.74 620.889 344.05 621.809 344.67C622.749 345.27 623.409 346.16 623.789 347.34L623.429 347.52L623.489 344.1H625.829V364.5ZM618.809 357.96C619.749 357.96 620.549 357.74 621.209 357.3C621.889 356.86 622.409 356.2 622.769 355.32C623.129 354.44 623.309 353.35 623.309 352.05C623.309 350.75 623.119 349.66 622.739 348.78C622.379 347.9 621.859 347.24 621.179 346.8C620.519 346.36 619.729 346.14 618.809 346.14C617.429 346.14 616.339 346.66 615.539 347.7C614.739 348.74 614.339 350.19 614.339 352.05C614.339 353.91 614.739 355.36 615.539 356.4C616.339 357.44 617.429 357.96 618.809 357.96ZM635.839 360.36C634.259 360.36 632.989 359.83 632.029 358.77C631.089 357.69 630.619 356.21 630.619 354.33V344.1H633.139V353.64C633.139 355.18 633.409 356.32 633.949 357.06C634.509 357.78 635.359 358.14 636.499 358.14C637.759 358.14 638.749 357.74 639.469 356.94C640.189 356.12 640.549 355 640.549 353.58V344.1H643.069V360H640.669V356.07L641.059 356.28C640.739 357.58 640.129 358.59 639.229 359.31C638.329 360.01 637.199 360.36 635.839 360.36ZM652.255 360.36C650.615 360.36 649.305 359.98 648.325 359.22C647.365 358.46 646.885 357.4 646.885 356.04C646.885 354.68 647.285 353.61 648.085 352.83C648.885 352.05 650.155 351.5 651.895 351.18L657.535 350.13C657.535 348.79 657.215 347.79 656.575 347.13C655.955 346.47 655.015 346.14 653.755 346.14C652.655 346.14 651.785 346.39 651.145 346.89C650.505 347.37 650.065 348.07 649.825 348.99L647.155 348.78C647.455 347.28 648.175 346.07 649.315 345.15C650.475 344.21 651.955 343.74 653.755 343.74C655.795 343.74 657.355 344.32 658.435 345.48C659.515 346.62 660.055 348.2 660.055 350.22V356.79C660.055 357.15 660.115 357.41 660.235 357.57C660.375 357.71 660.595 357.78 660.895 357.78H661.525V360C661.445 360.02 661.315 360.03 661.135 360.03C660.955 360.05 660.765 360.06 660.565 360.06C659.845 360.06 659.255 359.95 658.795 359.73C658.355 359.49 658.035 359.13 657.835 358.65C657.635 358.15 657.535 357.5 657.535 356.7L657.835 356.76C657.695 357.44 657.355 358.06 656.815 358.62C656.275 359.16 655.605 359.59 654.805 359.91C654.005 360.21 653.155 360.36 652.255 360.36ZM652.495 358.14C653.555 358.14 654.455 357.94 655.195 357.54C655.955 357.12 656.535 356.56 656.935 355.86C657.335 355.14 657.535 354.34 657.535 353.46V352.32L652.375 353.28C651.295 353.48 650.545 353.79 650.125 354.21C649.725 354.61 649.525 355.14 649.525 355.8C649.525 356.54 649.785 357.12 650.305 357.54C650.845 357.94 651.575 358.14 652.495 358.14ZM664.838 360V344.1H667.148L667.238 348.15L666.938 347.88C667.138 346.94 667.488 346.17 667.988 345.57C668.488 344.95 669.088 344.49 669.788 344.19C670.508 343.89 671.278 343.74 672.098 343.74C673.318 343.74 674.318 344.01 675.098 344.55C675.898 345.09 676.488 345.82 676.868 346.74C677.268 347.64 677.468 348.65 677.468 349.77V360H674.948V350.49C674.948 349.51 674.828 348.69 674.588 348.03C674.368 347.35 674.008 346.84 673.508 346.5C673.008 346.14 672.358 345.96 671.558 345.96C670.338 345.96 669.328 346.35 668.528 347.13C667.748 347.89 667.358 349.01 667.358 350.49V360H664.838ZM687.56 360.36C686.18 360.36 684.98 360.02 683.96 359.34C682.96 358.66 682.19 357.7 681.65 356.46C681.11 355.22 680.84 353.75 680.84 352.05C680.84 350.35 681.11 348.88 681.65 347.64C682.19 346.4 682.96 345.44 683.96 344.76C684.98 344.08 686.18 343.74 687.56 343.74C688.62 343.74 689.59 343.97 690.47 344.43C691.35 344.87 692.01 345.5 692.45 346.32V338.7H694.97V360H692.69L692.6 357.6C692.16 358.46 691.49 359.14 690.59 359.64C689.69 360.12 688.68 360.36 687.56 360.36ZM688.07 357.96C689.01 357.96 689.8 357.72 690.44 357.24C691.1 356.76 691.6 356.08 691.94 355.2C692.28 354.3 692.45 353.25 692.45 352.05C692.45 350.81 692.28 349.75 691.94 348.87C691.6 347.99 691.1 347.32 690.44 346.86C689.8 346.38 689.01 346.14 688.07 346.14C686.67 346.14 685.55 346.67 684.71 347.73C683.89 348.77 683.48 350.21 683.48 352.05C683.48 353.87 683.89 355.31 684.71 356.37C685.55 357.43 686.67 357.96 688.07 357.96ZM706.059 360.36C704.599 360.36 703.319 360.02 702.219 359.34C701.119 358.66 700.269 357.7 699.669 356.46C699.069 355.2 698.769 353.73 698.769 352.05C698.769 350.35 699.069 348.88 699.669 347.64C700.269 346.4 701.119 345.44 702.219 344.76C703.319 344.08 704.599 343.74 706.059 343.74C707.519 343.74 708.789 344.08 709.869 344.76C710.969 345.44 711.819 346.4 712.419 347.64C713.019 348.88 713.319 350.35 713.319 352.05C713.319 353.73 713.019 355.2 712.419 356.46C711.819 357.7 710.969 358.66 709.869 359.34C708.789 360.02 707.519 360.36 706.059 360.36ZM706.059 357.96C707.519 357.96 708.649 357.44 709.449 356.4C710.269 355.34 710.679 353.89 710.679 352.05C710.679 350.21 710.269 348.77 709.449 347.73C708.649 346.67 707.519 346.14 706.059 346.14C704.599 346.14 703.459 346.67 702.639 347.73C701.819 348.77 701.409 350.21 701.409 352.05C701.409 353.89 701.819 355.34 702.639 356.4C703.459 357.44 704.599 357.96 706.059 357.96ZM737.772 364.5H735.252V356.58L735.612 357C735.432 357.68 735.092 358.27 734.592 358.77C734.112 359.27 733.512 359.66 732.792 359.94C732.092 360.22 731.332 360.36 730.512 360.36C728.932 360.36 727.632 359.97 726.612 359.19C725.612 358.41 724.862 357.39 724.362 356.13C723.882 354.87 723.642 353.51 723.642 352.05C723.642 350.59 723.882 349.23 724.362 347.97C724.862 346.71 725.612 345.69 726.612 344.91C727.632 344.13 728.932 343.74 730.512 343.74C731.752 343.74 732.832 344.05 733.752 344.67C734.692 345.27 735.352 346.16 735.732 347.34L735.372 347.52L735.432 344.1H737.772V364.5ZM730.752 357.96C731.692 357.96 732.492 357.74 733.152 357.3C733.832 356.86 734.352 356.2 734.712 355.32C735.072 354.44 735.252 353.35 735.252 352.05C735.252 350.75 735.062 349.66 734.682 348.78C734.322 347.9 733.802 347.24 733.122 346.8C732.462 346.36 731.672 346.14 730.752 346.14C729.372 346.14 728.282 346.66 727.482 347.7C726.682 348.74 726.282 350.19 726.282 352.05C726.282 353.91 726.682 355.36 727.482 356.4C728.282 357.44 729.372 357.96 730.752 357.96ZM747.782 360.36C746.202 360.36 744.932 359.83 743.972 358.77C743.032 357.69 742.562 356.21 742.562 354.33V344.1H745.082V353.64C745.082 355.18 745.352 356.32 745.892 357.06C746.452 357.78 747.302 358.14 748.442 358.14C749.702 358.14 750.692 357.74 751.412 356.94C752.132 356.12 752.492 355 752.492 353.58V344.1H755.012V360H752.612V356.07L753.002 356.28C752.682 357.58 752.072 358.59 751.172 359.31C750.272 360.01 749.142 360.36 747.782 360.36ZM759.379 360V344.1H761.899V360H759.379ZM759.319 341.61V338.67H761.959V341.61H759.319ZM772.583 360.36C771.163 360.36 769.953 360.13 768.953 359.67C767.973 359.21 767.203 358.58 766.643 357.78C766.103 356.96 765.793 356.03 765.713 354.99L768.353 354.81C768.513 355.77 768.923 356.54 769.583 357.12C770.243 357.68 771.243 357.96 772.583 357.96C773.663 357.96 774.523 357.79 775.163 357.45C775.823 357.09 776.153 356.52 776.153 355.74C776.153 355.32 776.053 354.97 775.853 354.69C775.653 354.41 775.263 354.17 774.683 353.97C774.103 353.75 773.243 353.54 772.103 353.34C770.583 353.06 769.383 352.72 768.503 352.32C767.643 351.9 767.023 351.39 766.643 350.79C766.283 350.17 766.103 349.44 766.103 348.6C766.103 347.18 766.623 346.02 767.663 345.12C768.703 344.2 770.183 343.74 772.103 343.74C773.403 343.74 774.493 343.98 775.373 344.46C776.273 344.92 776.973 345.54 777.473 346.32C777.993 347.08 778.333 347.92 778.493 348.84L775.853 349.02C775.733 348.46 775.513 347.97 775.193 347.55C774.873 347.11 774.453 346.77 773.933 346.53C773.413 346.27 772.793 346.14 772.073 346.14C770.933 346.14 770.093 346.36 769.553 346.8C769.013 347.24 768.743 347.8 768.743 348.48C768.743 349 768.863 349.43 769.103 349.77C769.363 350.09 769.773 350.36 770.333 350.58C770.893 350.78 771.643 350.96 772.583 351.12C774.203 351.4 775.463 351.74 776.363 352.14C777.263 352.54 777.893 353.03 778.253 353.61C778.613 354.19 778.793 354.9 778.793 355.74C778.793 356.72 778.513 357.56 777.953 358.26C777.413 358.94 776.673 359.46 775.733 359.82C774.813 360.18 773.763 360.36 772.583 360.36ZM788.764 360.36C787.264 360.36 785.964 360.02 784.864 359.34C783.784 358.66 782.944 357.7 782.344 356.46C781.764 355.2 781.474 353.73 781.474 352.05C781.474 350.37 781.764 348.91 782.344 347.67C782.944 346.43 783.774 345.47 784.834 344.79C785.914 344.09 787.184 343.74 788.644 343.74C790.024 343.74 791.244 344.07 792.304 344.73C793.364 345.37 794.184 346.31 794.764 347.55C795.364 348.79 795.664 350.3 795.664 352.08V352.83H784.114C784.214 354.53 784.664 355.81 785.464 356.67C786.284 357.53 787.384 357.96 788.764 357.96C789.804 357.96 790.654 357.72 791.314 357.24C791.994 356.74 792.464 356.09 792.724 355.29L795.424 355.5C795.004 356.92 794.204 358.09 793.024 359.01C791.864 359.91 790.444 360.36 788.764 360.36ZM784.114 350.61H792.904C792.784 349.07 792.334 347.94 791.554 347.22C790.794 346.5 789.824 346.14 788.644 346.14C787.424 346.14 786.414 346.52 785.614 347.28C784.834 348.02 784.334 349.13 784.114 350.61ZM799.339 360V344.1H801.559L801.679 348.12L801.439 348.03C801.639 346.67 802.069 345.68 802.729 345.06C803.409 344.42 804.309 344.1 805.429 344.1H806.989V346.5H805.459C804.659 346.5 803.989 346.65 803.449 346.95C802.929 347.23 802.529 347.66 802.249 348.24C801.989 348.8 801.859 349.52 801.859 350.4V360H799.339Z" fill="#6B7280"/>
<path d="M886.875 210.917L897.083 200.708C897.465 200.326 897.951 200.135 898.542 200.135C899.132 200.135 899.618 200.326 900 200.708C900.382 201.09 900.573 201.576 900.573 202.167C900.573 202.757 900.382 203.243 900 203.625L888.333 215.292C887.917 215.708 887.431 215.917 886.875 215.917C886.319 215.917 885.833 215.708 885.417 215.292L880 209.875C879.618 209.493 879.427 209.007 879.427 208.417C879.427 207.826 879.618 207.34 880 206.958C880.382 206.576 880.868 206.385 881.458 206.385C882.049 206.385 882.535 206.576 882.917 206.958L886.875 210.917Z" fill="#22C55E"/>
<path d="M886.875 280.917L897.083 270.708C897.465 270.326 897.951 270.135 898.542 270.135C899.132 270.135 899.618 270.326 900 270.708C900.382 271.09 900.573 271.576 900.573 272.167C900.573 272.757 900.382 273.243 900 273.625L888.333 285.292C887.917 285.708 887.431 285.917 886.875 285.917C886.319 285.917 885.833 285.708 885.417 285.292L880 279.875C879.618 279.493 879.427 279.007 879.427 278.417C879.427 277.826 879.618 277.34 880 276.958C880.382 276.576 880.868 276.385 881.458 276.385C882.049 276.385 882.535 276.576 882.917 276.958L886.875 280.917Z" fill="#22C55E"/>
<path d="M886.875 350.917L897.083 340.708C897.465 340.326 897.951 340.135 898.542 340.135C899.132 340.135 899.618 340.326 900 340.708C900.382 341.09 900.573 341.576 900.573 342.167C900.573 342.757 900.382 343.243 900 343.625L888.333 355.292C887.917 355.708 887.431 355.917 886.875 355.917C886.319 355.917 885.833 355.708 885.417 355.292L880 349.875C879.618 349.493 879.427 349.007 879.427 348.417C879.427 347.826 879.618 347.34 880 346.958C880.382 346.576 880.868 346.385 881.458 346.385C882.049 346.385 882.535 346.576 882.917 346.958L886.875 350.917Z" fill="#22C55E"/>
<path d="M151.335 419.711C152.65 419.801 154.21 419.589 155.432 420.043C155.858 420.549 155.904 420.592 155.968 421.247C154.442 421.234 151.376 421.549 150.22 420.543C150.468 419.95 150.762 419.962 151.335 419.711Z" fill="#040303"/>
<path d="M262.834 419.408C264.607 418.491 266.351 418.004 268.314 417.674C268.975 417.749 269.741 417.665 270.166 418.24C270.212 418.302 270.301 418.538 270.329 418.605C270.48 418.956 270.503 419.032 270.814 419.223C268.099 419.293 265.57 419.608 262.834 419.408Z" fill="#040303"/>
<path d="M209.681 114.014C210.171 113.925 210.609 113.941 211.102 113.968L211.307 114.285C211.241 114.399 211.17 114.54 211.08 114.642C209.922 115.957 207.883 116.193 206.26 116.198C206.079 116.204 205.774 116.217 205.602 116.209C205.058 116.187 205.041 116.148 204.686 115.764L204.99 115.319C206.596 114.473 207.889 114.175 209.681 114.014Z" fill="#040303"/>
<path d="M185.844 236.281C186.136 236.307 186.373 236.423 186.644 236.528L186.815 236.938C185.926 238.996 183.581 240.304 181.738 241.434C181.373 241.508 181.312 241.423 180.979 241.285C181.254 239.663 184.574 237.332 185.844 236.281Z" fill="#040303"/>
<path d="M204.263 120.183C205.791 120.396 207.422 120.581 208.711 121.505C209.743 122.244 210.157 123.18 210.386 124.393C208.755 124.026 207.03 123.476 205.662 122.492C204.642 121.759 204.459 121.368 204.263 120.183Z" fill="#040303"/>
<path d="M153.162 267.621C152.488 267.787 151.773 267.992 151.079 268.029C149.482 268.116 147 266.735 145.89 265.601C145.478 265.18 145.273 264.798 145.265 264.201C147.133 263.587 149.227 266.225 151.392 265.955C151.47 265.946 151.546 265.928 151.623 265.913L152.098 266.261C152.018 266.624 151.921 266.809 151.694 267.103C152.168 267.492 152.578 267.533 153.162 267.621Z" fill="#040303"/>
<path d="M147.941 251.589L148.482 251.914C148.565 252.455 148.311 252.765 148.068 253.223C147.908 253.523 147.959 253.388 147.89 253.712C146.07 254.541 143.629 255.915 141.594 255.082C141.143 254.897 140.702 254.618 140.285 254.372C140.488 253.826 140.501 253.747 140.966 253.41C143.809 253.68 145.511 252.805 147.941 251.589Z" fill="#040303"/>
<path d="M97.8988 156.272C98.3877 156.35 103.892 159.004 104.187 159.315C104.484 159.628 104.36 159.926 104.342 160.335C104.297 160.35 104.252 160.365 104.208 160.381C103.823 160.52 103.429 160.671 103.025 160.736C101.879 160.921 100.371 160.597 99.479 159.835C98.2459 158.781 98.0611 157.789 97.8988 156.272Z" fill="#040303"/>
<path d="M173.999 235.671C174.464 236.187 174.576 236.516 174.704 237.194C171.591 239.478 168.475 241.953 165.072 243.79C167.403 240.192 170.523 238.041 173.999 235.671Z" fill="#040303"/>
<path d="M100.257 196.585C102.728 199.845 105.143 203.111 107.682 206.31C103.505 204.444 101.097 201.117 98.3408 197.621L100.257 196.585Z" fill="#040303"/>
<path d="M206.886 106.507C207.21 106.535 207.359 106.563 207.644 106.742C207.976 106.953 207.91 107.144 207.985 107.509C207.397 110.266 204.738 112.747 202.818 114.708C202.715 114.676 202.607 114.654 202.507 114.612C201.942 114.371 201.82 113.985 201.625 113.453C201.899 110.723 204.934 108.185 206.886 106.507Z" fill="#262526"/>
<path d="M89.669 138.6C91.2121 138.994 91.9666 141.054 93.3587 141.286C94.6534 141.501 96.2247 141.251 97.5665 141.284L97.847 141.642C97.7679 142.329 97.32 142.767 96.9039 143.286C95.5489 143.881 94.1909 143.786 92.7447 143.757C91.8201 143.198 90.8502 142.646 90.0361 141.93C89.5218 141.477 88.9249 140.797 88.9472 140.062C88.9701 139.311 89.1816 139.111 89.669 138.6Z" fill="#262526"/>
<path d="M96.3468 133.792C99.5836 134.948 99.5894 139.441 102.103 141.323C103.511 142.376 106.385 142.707 107.361 143.883L107.252 144.32C106.622 144.439 105.977 144.565 105.334 144.535C102.96 144.425 100.65 142.892 99.1221 141.149C97.4006 139.187 96.1874 136.436 96.3468 133.792Z" fill="#040303"/>
<path d="M302.622 387.14C302.697 387.175 302.781 387.196 302.847 387.248C303.292 387.595 303.295 387.822 303.345 388.337C301.938 391.636 292.757 398.611 289.537 400.64L289.079 400.713L288.926 400.369C290.738 396.659 299.119 390.157 302.622 387.14Z" fill="#262526"/>
<path d="M173.999 235.671C177.731 232.229 186.413 225.898 191.008 224.147C187.552 230.2 180.189 233.248 174.704 237.194C174.576 236.516 174.464 236.187 173.999 235.671Z" fill="#262526"/>
<path d="M164.707 258.605C170.878 258.254 177.026 258.526 183.196 258.393C187.446 258.301 191.726 257.787 195.96 257.775C196.843 257.773 197.671 257.843 198.524 258.089L198.818 258.45C198.47 259.085 197.735 259.462 197.065 259.685C195.455 260.221 193.446 260.155 191.755 260.265C183.08 260.831 174.49 260.373 165.808 260.619C165.06 260.643 164.3 260.779 163.671 260.306C163.784 259.565 164.243 259.174 164.707 258.605Z" fill="#040303"/>
<path d="M268.314 417.674C277.583 416.585 286.749 415.324 295.944 413.713C299.287 413.129 310.369 409.925 312.733 410.794C313.085 411.365 313.063 411.317 312.913 411.974C309.559 415.452 277.62 418.106 270.814 419.223C270.503 419.032 270.48 418.955 270.329 418.605C270.301 418.538 270.212 418.302 270.166 418.24C269.741 417.665 268.975 417.749 268.314 417.674Z" fill="url(#paint0_linear_6412_1173)"/>
<path d="M147.941 251.589C150.165 250.782 153.345 251.97 155.385 252.913C156.701 253.521 157.976 254.22 159.245 254.922C159.022 256.204 158.762 257.428 158.371 258.67C160.485 258.566 162.592 258.586 164.707 258.605C164.243 259.174 163.784 259.565 163.671 260.306C164.3 260.779 165.06 260.643 165.808 260.619C163.404 261.049 160.752 261.012 158.308 261.056C158.641 262.588 158.942 263.577 158.003 264.977C157.075 266.362 154.751 267.329 153.162 267.621C152.578 267.533 152.168 267.491 151.694 267.103C151.921 266.809 152.018 266.624 152.098 266.261L151.623 265.913C152.114 265.655 152.375 265.619 152.614 265.105C152.062 264.291 150.893 263.831 150.103 263.245L150.156 262.974C152.252 262.018 154.44 264.517 156.206 263.798L156.249 263.28C154.962 261.206 152.389 260.325 150.651 258.702C150.817 257.023 153.723 257.134 154.748 256.084C155.03 255.795 154.945 255.743 154.944 255.367C154.759 255.156 154.598 254.974 154.357 254.822C152.635 253.733 149.853 253.324 147.89 253.712C147.96 253.388 147.908 253.523 148.068 253.223C148.312 252.765 148.565 252.455 148.482 251.914L147.941 251.589Z" fill="#262526"/>
<path d="M156.653 409.827L156.952 409.97C161.891 412.336 170.088 412.477 175.164 410.69C177.056 410.024 179.468 408.974 180.347 407.045C180.52 406.664 180.593 406.408 180.514 405.988C177.928 404.338 169.707 408.841 168.122 405.956C168.174 405.504 168.075 405.278 168.454 404.978C170.514 403.354 178.04 402.735 180.571 403.184C181.523 403.352 182.322 403.619 183.073 404.246C183.532 405.014 183.645 405.773 183.45 406.655C182.986 408.743 180.816 410.626 179.043 411.682C172.396 415.644 162.682 413.876 155.571 412.006L155.191 411.905C155.72 411.277 156.405 410.62 156.653 409.827Z" fill="#262526"/>
<path d="M280.212 279.854C281.305 280.791 282.229 291.496 282.875 293.936C283.709 297.084 285.245 300.614 288.255 302.242C290.219 303.305 292.842 303.392 294.944 302.674C296.402 302.175 297.526 301.231 298.501 300.067C303.292 294.345 300.582 287.619 302.932 282.94L303.289 282.857C303.427 282.984 303.478 283.017 303.58 283.159C304.407 284.299 304.348 286.578 304.111 287.907C303.989 289.935 303.925 292.012 303.542 294.01C302.826 297.74 301.124 301.763 297.835 303.918C294.052 306.398 289.258 305.965 285.044 305.105C283.751 304.841 281.334 304.608 280.575 303.461L280.683 302.993C281.24 302.458 281.77 302.178 282.476 301.87L282.728 301.762C282.773 301.622 282.868 301.49 282.863 301.345C282.841 300.743 282.058 299.447 281.796 298.796C280.987 296.83 280.345 294.811 279.873 292.739C279.054 289.149 278.135 283.18 280.212 279.854Z" fill="#262526"/>
<path d="M93.2763 176.248C91.673 176.194 90.1056 176.616 88.5682 175.971C88.1055 175.777 88.137 175.775 87.9531 175.313C91.1709 171.224 100.735 173.439 104.866 162.199C106.764 157.037 104.604 149.321 105.478 147.69L105.846 147.588C106.076 147.725 106.235 147.863 106.386 148.087C108.552 151.274 108.312 157.363 107.515 160.97C106.077 167.477 102.229 170.725 96.8816 174.164C98.1472 175.579 98.9715 176.984 99.4115 178.847C100.607 183.912 98.0337 186.782 95.5058 190.757C96.5718 192.731 98.8033 194.815 100.257 196.586L98.3408 197.621C96.0407 195.81 94.1344 193.171 91.8543 191.225C94.263 188.494 95.8053 186.901 97.2011 183.452C97.1457 183.07 97.0853 182.688 97.0199 182.307C96.5474 179.582 95.5781 177.857 93.2763 176.248Z" fill="url(#paint1_linear_6412_1173)"/>
<path d="M73.4754 188.124L74.233 188.318C74.2407 188.771 68.5627 197.593 67.8494 199.388C63.8903 209.352 66.1444 221.958 66.7713 232.389C67.2212 239.874 68.8345 257.965 63.8739 263.556L63.442 263.291L63.3497 263.05C63.0879 262.368 64.9381 250.719 64.9915 248.605C65.0946 244.524 65.1049 240.316 64.8276 236.242C64.2028 227.062 62.8806 218.084 63.7771 208.87C64.628 200.126 66.5011 193.869 73.4754 188.124Z" fill="#262526"/>
<path d="M292.014 239.281C292.301 239.287 292.572 239.291 292.854 239.356C300.347 241.065 295.61 257.09 297.565 259.896L297.975 259.761C299 258.276 298.849 255.558 299.719 253.78C300.12 252.961 300.486 252.597 301.334 252.321C302.259 252.446 302.883 252.92 303.511 253.597C305.532 255.777 306.136 258.222 305.942 261.124C305.714 264.524 304.412 266.664 301.874 268.874C300.001 269.169 298.197 269.387 296.298 269.451C296.258 270.778 296.196 272.118 296.235 273.444C296.356 277.569 300.144 274.905 302.415 277.21C303.01 277.814 303.41 278.812 303.359 279.664C303.32 280.324 302.959 280.872 302.462 281.286C299.751 283.537 294.161 283.27 290.844 282.953C288.587 282.726 286.155 282.23 284.146 281.145C283.065 280.561 281.973 279.685 281.657 278.44C281.502 277.827 281.599 277.213 281.956 276.69C283.107 275.003 285.919 274.732 287.769 274.468C287.477 272.668 287.294 270.843 287.073 269.034C284.615 268.896 282.402 268.816 280.393 267.206C278.759 265.896 278.014 264.014 277.811 261.984C277.513 259.032 277.797 254.93 279.877 252.599C280.349 252.07 280.714 251.844 281.415 251.783C282.79 252.262 283.464 253.424 284.227 254.58C284.354 256.322 283.927 259.795 285.157 261.111C285.515 261.494 285.616 261.494 286.106 261.523C286.969 260.646 286.83 259.02 286.891 257.864C287.008 255.634 287.308 253.407 287.568 251.19C288.1 246.666 288.431 242.51 292.014 239.281ZM292.321 243.883C292.358 251.199 290.601 258.454 290.917 265.782C291.07 269.318 291.996 273.99 291.48 277.396C291.393 277.966 291.12 278.189 290.893 278.671C290.853 278.755 290.848 278.851 290.825 278.941C291.127 279.701 291.015 280.424 291.663 280.951C292.354 281.065 293.142 281.303 293.807 281.018C294.026 279.805 293.811 278.377 293.728 277.146C293.505 273.85 293.561 270.856 294.548 267.676C296.332 267.033 298.036 267.042 299.832 266.612C300.87 266.365 301.847 265.821 302.375 264.86C303.166 263.422 303.542 259.246 302.99 257.783C302.756 257.167 302.343 256.547 301.731 256.32C301.077 257.087 301.068 258.788 300.887 259.779C300.639 261.139 300.281 263.076 299.01 263.857C298.399 264.232 297.817 264.196 297.148 264.007C292.599 262.72 296.026 246.282 293.946 242.753C293.152 242.824 292.861 243.336 292.321 243.883ZM285.724 264.5C283.697 262.773 282.643 261.652 282.222 258.947C282.171 257.734 282.328 255.902 281.561 254.897L281.155 254.886C280.035 256.051 279.511 258.491 279.562 260.093C279.619 261.873 280.62 264.268 281.903 265.485C282.586 266.132 283.493 266.596 284.453 266.569C285.165 266.55 285.614 266.325 286.171 265.909L286.367 265.353C286.156 264.923 286.109 264.773 285.724 264.5Z" fill="#262526"/>
<path d="M285.724 264.5C286.109 264.773 286.156 264.923 286.367 265.353L286.171 265.909C285.614 266.325 285.165 266.55 284.453 266.569C283.493 266.596 282.586 266.132 281.903 265.485C280.62 264.268 279.619 261.873 279.562 260.093C279.511 258.491 280.035 256.051 281.155 254.886L281.561 254.897C282.328 255.902 282.171 257.734 282.222 258.947C282.643 261.652 283.697 262.773 285.724 264.5ZM285.724 264.5C283.697 262.773 282.643 261.652 282.222 258.947C281.738 259.157 281.641 259.181 281.44 259.711C281.043 260.761 281.51 262.211 281.991 263.17C282.416 264.018 283.135 265.23 284.062 265.588C284.636 265.81 284.744 265.682 285.253 265.417C285.456 265.094 285.623 264.868 285.724 264.5Z" fill="#C1BFC0"/>
<path d="M290.825 278.941L290.539 278.758C290.252 277.918 289.996 277.074 289.851 276.197C289.387 273.395 289.494 270.507 289.412 267.678C289.216 260.913 288.276 249.593 292.321 243.883C292.358 251.199 290.601 258.454 290.917 265.782C291.07 269.318 291.996 273.99 291.48 277.396C291.393 277.966 291.12 278.189 290.893 278.671C290.853 278.755 290.848 278.851 290.825 278.941Z" fill="#C1BFC0"/>
<path d="M321.909 391.495C321.199 389.139 320.315 386.09 321.619 383.768C322.618 381.989 325.22 381.204 327.083 380.767C332.483 379.504 360.066 377.698 364.062 380.045C364.412 380.25 364.483 380.397 364.696 380.742C364.419 381.221 364.174 381.268 363.626 381.399C362.778 381.603 361.844 381.646 360.975 381.734C361.131 383.598 360.214 389.621 361.535 390.744C362.278 391.377 363.183 391.357 363.736 392.222C363.659 392.557 363.713 392.695 363.411 392.899C362.736 393.357 361.777 392.846 361.231 393.43C361.751 397.61 364.684 397.802 361.142 402.88L364.097 405.124C362.083 404.903 360.136 404.982 358.118 405.073L358.162 405.342C358.468 407.305 358.095 414.696 358.147 414.892C358.173 414.989 358.417 415.179 358.467 415.207C359.572 415.852 361.053 415.974 362.271 416.704C353.905 418.678 318.979 417.955 309.654 416.574C311.951 416.057 313.98 415.62 316.355 415.855C316.146 414.549 315.835 413.128 315.922 411.808C316.05 409.839 317.263 407.54 316.747 405.659C316.697 405.479 316.665 405.294 316.625 405.111C316.519 404.623 316.534 404.675 316.805 404.241C318.423 403.507 320.667 403.617 322.418 403.561C322.314 401.891 322.282 395.244 321.548 394.34C321.53 394.318 321.506 394.303 321.484 394.284C319.271 394.685 316.629 394.463 314.371 394.493C314.435 394.455 314.5 394.416 314.565 394.379C314.674 394.317 314.784 394.259 314.894 394.198C317.061 392.98 319.621 392.5 321.909 391.495ZM349.503 405.178C344.772 405.398 322.806 405.547 320.098 408.835C319.243 409.871 319.214 411.689 319.436 412.938C319.558 413.627 319.77 414.265 320.374 414.675C321.975 415.759 324.692 415.439 326.551 415.377C331.95 415.233 337.35 415.196 342.751 415.266C347.221 415.322 351.776 415.583 356.231 415.225C356.148 411.832 356.113 408.439 356.127 405.045C353.969 405.173 351.613 404.905 349.503 405.178ZM348.956 381.46C343.208 381.99 328.192 380.73 324.5 385.456C324.019 386.073 323.812 386.833 323.928 387.607C324.081 388.64 324.738 389.696 325.587 390.301C327.484 391.652 332.676 391.127 335.027 391.123C339.463 391.082 355.975 391.654 358.898 390.401C359.542 387.697 359.017 384.299 359.284 381.446C355.841 381.419 352.399 381.424 348.956 381.46ZM340.251 393.462C336.004 393.548 331.623 393.459 327.423 394.127C326.935 395.911 327.628 401.226 327.575 403.563C329.141 403.521 330.718 403.518 332.279 403.412C336.693 403.195 341.157 402.81 345.572 402.823C344.788 399.57 344.59 396.516 344.736 393.181C343.24 393.339 341.754 393.41 340.251 393.462ZM350.496 393.487C350.491 396.411 350.671 399.487 350.308 402.385C353.383 402.224 356.74 402.249 359.705 401.322C360.242 400.475 360.558 399.74 360.862 398.791C360.593 397.64 360.37 396.452 360.034 395.321C356.861 393.848 353.941 393.596 350.496 393.487Z" fill="#262526"/>
<path d="M345.525 384.389C348.955 384.315 353.892 383.62 357.011 385.086L356.999 385.305C354.338 386.224 347.036 385.856 343.978 385.901C339.43 386.212 334.932 386.6 330.427 385.68C335.333 384.735 340.542 384.709 345.525 384.389Z" fill="#040303"/>
<path d="M330.861 411.683C333.351 411.663 345.706 411.718 347.206 412.782C346.82 413.246 346.473 413.196 345.892 413.31C344.285 413.514 342.656 413.555 341.038 413.579C338.836 413.614 330.504 413.887 329.238 412.66C329.677 412.059 330.192 411.958 330.861 411.683Z" fill="#040303"/>
<path d="M329.466 408.102C329.943 407.992 351.445 408.281 353.245 408.423C351.301 408.942 349.306 409.188 347.318 409.474C344.089 410.001 327.079 410.968 324.892 409.516C324.863 409.101 324.792 409.238 325.063 408.946C325.903 408.038 328.27 408.174 329.466 408.102Z" fill="#4D4B4C"/>
<path d="M91.5576 318.203C91.8284 318.377 92.116 318.551 92.3515 318.773C94.0485 320.374 95.5405 323.04 96.9868 324.915C101.306 330.516 106.698 336.078 110.091 342.268C111.296 344.464 112.437 347.256 112.452 349.797C112.504 358.983 97.0879 399.709 90.3043 406.618C84.8597 408.604 74.5788 404.999 68.8159 403.839C68.9709 406.534 73.7055 415.748 75.8843 417.686C76.0885 417.866 76.3013 418.035 76.5226 418.194C76.7439 418.352 76.9727 418.499 77.2088 418.635C77.445 418.77 77.6874 418.893 77.9359 419.003C78.1846 419.114 78.4381 419.212 78.6966 419.298C78.9551 419.382 79.2173 419.454 79.483 419.513C79.7488 419.571 80.0169 419.617 80.2873 419.649C80.5576 419.68 80.8289 419.698 81.101 419.702C81.3731 419.706 81.6448 419.697 81.916 419.673C82.9514 419.588 84.5367 419.265 85.2439 418.437C84.974 415.418 78.5658 414.07 76.6892 411.75C76.1172 411.043 75.8038 410.207 75.9148 409.303L76.4072 409.01C79.3739 409.346 85.3481 413.932 87.2503 416.171L87.4428 416.399C87.8344 417.146 88.3877 418.071 88.3461 418.945C88.3151 419.598 87.9063 420.144 87.4042 420.53C83.9797 423.161 70.5426 421.502 66.3943 421.02C68.474 419.524 70.3479 418.764 72.8671 418.305C69.966 413.333 67.6515 407.959 64.9774 402.856C62.8309 407.004 59.5433 410.904 56.77 414.659C58.04 409.235 59.883 404.997 63.355 400.569C59.9298 398.921 54.7259 396.271 53.2513 392.64C53.7629 390.075 54.5566 387.653 55.605 385.259C60.9386 373.076 67.9604 361.553 74.1771 349.813L82.9589 333.302C85.6952 328.041 87.9791 322.977 91.5576 318.203Z" fill="#262526"/>
<path d="M83.8135 100.811C84.2383 100.75 84.6649 100.706 85.0932 100.678C85.5216 100.651 85.9503 100.641 86.3794 100.649C86.8086 100.656 87.2367 100.68 87.6638 100.722C88.091 100.764 88.5158 100.823 88.9382 100.899C89.3606 100.974 89.7793 101.067 90.1943 101.177C90.6093 101.286 91.0192 101.412 91.4241 101.555C91.8289 101.697 92.2274 101.856 92.6195 102.03C93.0116 102.205 93.3961 102.395 93.7729 102.6C94.2046 102.844 94.6233 103.108 95.0291 103.393C95.4349 103.678 95.8259 103.981 96.202 104.304C96.5781 104.627 96.9376 104.968 97.2804 105.326C97.6229 105.684 97.9474 106.058 98.2538 106.447C98.5601 106.837 98.8466 107.241 99.1133 107.659C99.3799 108.077 99.6256 108.506 99.8505 108.948C100.075 109.39 100.278 109.842 100.459 110.303C100.639 110.765 100.797 111.235 100.931 111.712C102.186 116.207 101.081 121.023 98.5451 124.869C97.2191 126.88 95.5844 128.678 94.411 130.79L94.2666 131.054C93.4064 131.39 92.4078 131.727 91.6508 132.252C90.3704 133.139 88.2596 135.746 86.7064 135.734C86.4112 135.021 86.894 134.428 86.617 133.743C84.9695 133.49 81.066 134.402 79.0512 134.519C75.6153 134.719 72.4099 134.165 69.0379 133.601L69.3744 134.119L69.3378 134.103C70.4588 135.818 71.7134 137.55 72.6376 139.377C76.1223 146.269 77.7951 154.945 78.579 162.56C79.2502 169.079 80.0793 178.389 75.6173 183.758C71.5554 188.646 62.6334 188.882 56.7743 189.392C46.2356 190.123 35.4629 189.573 25.8955 184.767C27.8219 178.885 29.9873 172.88 30.7884 166.719C32.3271 154.883 30.6288 142.927 35.8896 131.762C38.511 126.199 42.894 122.392 48.6916 120.359C53.6839 118.608 58.9045 118.267 63.7583 120.57C63.8058 120.32 63.8601 120.073 63.9117 119.825C64.6785 116.13 66.7148 112.376 69.0364 109.438C72.7915 104.686 77.7532 101.504 83.8135 100.811ZM94.8938 107.681C97.4205 114.333 98.1423 116.305 95.2593 123.095C94.8429 124.076 94.0946 125.322 94.0784 126.393L94.5416 126.001C97.5911 121.871 98.8444 117.568 98.1061 112.415C97.8421 110.571 97.1183 109.003 95.5238 107.945C95.3204 107.81 95.1247 107.751 94.8938 107.681Z" fill="#262526"/>
<path d="M310.425 302.061C308.786 301.696 304.587 301.98 303.554 300.944C303.932 300.3 304.41 300.091 305.139 299.894C307.07 299.37 309.981 299.373 311.699 300.481C314.217 302.109 318.979 307.751 320.267 310.429C320.94 311.826 321.169 313.556 321.433 315.076C322.413 320.724 323.781 344.724 321.208 348.792C320.035 350.647 315.919 350.897 313.938 351.487C316.281 352.836 320.44 355.155 321.251 357.835C322.261 361.168 321.834 376.5 320.381 379.746L320.084 379.883C318.374 376.215 319.791 360.904 317.66 359.074C309.967 360.606 301.985 361.319 294.218 362.486C285.809 363.817 277.383 365.028 268.94 366.118C266.578 366.415 264.216 366.887 261.849 367.097C262.161 369.988 262.006 372.985 262.003 375.891L261.837 393.368C261.785 402.151 262.578 411.084 261.497 419.821C253.584 416.612 246.735 411.793 239.247 407.774C235.965 406.012 232.257 405.037 229.056 403.183C228.251 402.717 227.816 402.311 227.391 401.484C227.609 400.894 227.979 400.704 228.556 400.455C229.437 400.076 230.372 399.773 231.277 399.454C230.974 382.396 230.897 365.337 231.045 348.276C234.24 347.292 244.478 345.049 247.446 346.287C247.499 346.308 247.537 346.355 247.582 346.389C247.053 347.297 245.631 347.607 244.661 347.858C241.84 348.586 239.203 349.144 236.455 350.176C241.179 353.877 246.153 357.027 251.369 359.992C254.382 361.704 257.724 363.179 260.479 365.279C266.572 363.821 272.725 363.242 278.917 362.36C285.726 361.39 292.51 360.214 299.31 359.168C304.691 358.342 310.482 357.738 315.65 355.973C313.784 354.814 312.013 353.773 309.872 353.192C305.32 351.956 300.586 352.38 295.95 352.669C291.668 352.936 287.38 353.145 283.1 353.447C277.826 353.821 272.221 354.564 266.968 353.807C263.034 353.241 259.378 351.799 255.822 350.081C254.541 349.463 252.003 348.536 251.697 346.974C251.611 346.533 251.76 346.354 251.917 345.949L253.151 344.91C252.765 339.921 252.589 334.925 252.622 329.921C252.677 326.148 252.947 322.367 252.927 318.597C252.906 314.468 252.033 309.79 252.83 305.743C253.427 305.312 253.727 305.415 254.449 305.415C254.535 305.348 254.708 304.986 254.764 304.884C254.63 304.176 254.462 303.517 254.911 302.888C255.84 301.589 257.829 301.273 259.316 301.103C262.757 300.711 275.036 300.207 277.618 301.568L277.405 301.462C277.269 301.812 277.198 302.319 276.846 302.467C272.568 304.283 264.244 303.001 259.062 304.128C260.686 305.707 262.156 307.411 263.846 308.924C264.997 309.954 266.412 310.75 267.447 311.875C277.112 311.414 286.806 311.318 296.479 310.936C302.476 310.701 311.839 309.888 317.511 310.415C314.931 307.851 312.901 304.745 310.425 302.061ZM319.096 312.548C308.041 313.365 296.956 313.249 285.882 313.637C282.119 313.769 278.181 313.575 274.456 314.074C272.912 314.28 270.001 314.696 268.999 316.017C266.913 318.769 267.74 346.502 267.808 351.417C268.697 351.531 269.538 351.517 270.429 351.484C279.486 351.206 288.449 350.714 297.486 350.111C304.598 349.637 312.903 349.687 319.644 347.277C319.831 344.549 320.042 341.811 320.1 339.078C320.209 333.86 319.982 328.649 319.929 323.434C319.898 320.286 320.103 317.064 319.918 313.927C319.883 313.32 319.878 312.991 319.514 312.511L319.096 312.548Z" fill="#262526"/>
<path d="M254.764 304.883C258.277 307.971 263.129 310.523 265.922 314.26C266.067 317.74 265.779 321.206 265.745 324.684C265.666 333.268 265.674 342.193 264.775 350.723C260.331 348.045 257.589 345.823 256.269 340.618C255.57 337.863 255.475 334.909 255.289 332.082C254.707 323.186 255.195 314.308 254.449 305.415C254.536 305.348 254.708 304.986 254.764 304.883Z" fill="#8B8A8A"/>
<path d="M233.311 352.074C234.929 352.374 249.607 361.76 252.485 363.413C254.866 364.781 257.256 365.93 259.795 366.974C260.155 371.877 259.894 376.927 259.943 381.855C260.013 388.92 259.851 395.89 259.675 402.945C259.571 407.147 259.671 411.333 259.241 415.522C259.048 415.88 259.197 415.741 258.748 415.881C254.845 414.008 239.667 405.443 237.144 402.791C235.434 400.994 234.551 398.721 234.087 396.315C232.797 389.611 233.472 379.729 233.464 372.663C233.458 365.793 233.13 358.945 233.311 352.074Z" fill="#8B8A8A"/>
<path d="M293.788 336.909L294.48 337.203C294.647 337.643 294.734 338.016 294.79 338.482C293.019 340.037 291.192 341.393 289.252 342.724C290.377 340.02 291.443 338.659 293.788 336.909Z" fill="#040303"/>
<path d="M293.788 336.909C295.928 334.865 305.877 325.354 308.123 325.475C308.431 325.492 308.36 325.528 308.543 325.799C307.494 329.785 298.058 335.419 294.79 338.482C294.734 338.016 294.647 337.642 294.48 337.202L293.788 336.909Z" fill="#262526"/>
<path d="M140.099 117.894C140.413 118.92 140.697 119.961 141.093 120.957C141.72 122.534 141.107 124.043 142.629 125.235C143.807 125.529 145.77 125.198 146.821 124.584C149.879 122.796 150.449 116.542 152.49 115.476C153.294 115.055 188.92 115.966 191.336 116.531C191.618 116.595 191.897 116.669 192.174 116.754C190.807 121.146 189.487 126.67 186.232 130.054C186.277 135.023 186.281 139.991 186.243 144.96C186.225 147.504 185.953 150.309 186.252 152.821C187.345 153.377 188.901 153.751 189.266 155.094C189.834 157.189 189.63 161.575 189.726 163.909C190.204 175.502 190.697 187.128 190.417 198.732C193.569 198.313 197.697 199.344 200.863 199.798C201.297 201.734 201.693 203.653 201.867 205.633C202.517 213.041 202.275 220.413 202.471 227.83C202.636 234.033 203.253 240.316 203.102 246.515C203.035 249.199 203.191 253.672 201.866 256.014C201.593 256.496 201.405 256.731 200.879 256.898C199.883 255.51 200.133 241.6 200.208 238.904C200.28 236.253 200.082 233.607 200.069 230.956C200.039 225.439 200.077 219.976 199.772 214.461C199.545 210.339 198.778 206.051 199.006 201.939C183.588 200.296 168.085 200.928 152.618 201.349C148.803 201.452 144.986 201.422 141.173 201.529C138.928 201.594 136.686 201.87 134.44 201.748C134.988 211.514 134.851 221.386 134.72 231.163C134.67 234.916 135.002 239.063 134.465 242.762C136.012 243.793 137.909 245.279 138.364 247.188L138.099 247.522C137.141 247.517 136.162 247.087 135.341 246.606C133.415 245.481 131.684 243.791 129.879 242.463C124.412 238.438 118.699 234.677 113.912 229.825C109.23 225.08 105.659 219.186 102.587 213.305C107.209 217.748 111.764 222.857 115.536 228.046C115.668 227.818 115.726 227.753 115.778 227.459C115.98 226.335 115.689 213.686 115.561 212.278C115.505 211.661 115.418 211.22 115.099 210.683L114.366 210.521L114.247 210.164C114.7 209.665 115.177 209.204 115.666 208.742C115.614 207.461 115.638 206.167 115.626 204.884L115.624 204.517C115.592 201.607 115.161 198.708 114.974 195.804C114.588 189.848 113.863 170.334 115.32 165.667C115.797 164.138 116.768 162.948 117.864 161.818C121.226 158.352 124.701 154.841 129.557 153.816C129.174 146.396 129.26 139.014 129.06 131.596C126.978 129.422 123.344 124.444 123.491 121.368C123.519 120.794 123.608 120.423 124.077 120.047C126.375 118.207 136.343 117.181 139.366 117.736C139.612 117.78 139.856 117.833 140.099 117.894ZM174.218 155.587C162.845 156.021 151.417 155.306 140.051 155.777C136.495 155.925 132.9 156.396 129.36 156.784C130.314 167.383 129.708 178.091 129.746 188.721C129.758 192.508 129.438 196.704 130.025 200.429C134.05 199.175 137.79 198.937 141.968 198.736C149.5 198.979 156.91 198.775 164.435 198.725C169.654 198.69 181.349 199.354 185.693 197.835C186.702 196.722 187.512 195.748 187.836 194.228C188.749 189.941 188.06 184.602 187.864 180.215C187.503 172.082 186.875 163.831 186.988 155.697C182.756 155.819 178.417 155.269 174.218 155.587ZM146.196 131.232C146.438 133.825 146.344 136.521 146.39 139.127L146.623 152.772L146.831 153.175C148.523 153.481 150.355 153.365 152.072 153.377C162.659 153.823 173.389 152.562 183.983 153.282C183.363 146.752 183.826 138.422 183.832 131.713C177.518 132.237 171.022 131.552 164.698 131.46C158.567 131.37 152.296 131.862 146.196 131.232ZM154.243 117.818C152.401 121.527 150.264 125.119 148.211 128.716C152.89 129.502 157.706 129.294 162.436 129.406C167.697 129.53 173.125 129.91 178.378 129.478C179.836 129.358 181.151 129.104 182.523 128.597C186.289 125.812 187.513 122.873 188.893 118.518C184.256 119.066 178.916 118.301 174.244 118.099C167.562 117.81 160.93 117.768 154.243 117.818ZM132.599 133.431C132.78 138.42 131.815 145.664 135.754 149.474C137.602 151.261 141.656 152.129 144.172 152.084C144.402 152.08 144.632 152.047 144.851 151.978C144.822 150.158 144.363 148.249 144.163 146.425C143.806 143.053 143.671 139.672 143.759 136.282C143.787 135.199 144.137 132.489 143.453 131.756C143.178 131.668 142.949 131.614 142.66 131.679C139.426 132.398 136.1 132.217 132.839 132.858L132.599 133.431ZM137.196 120.128C133.54 120.513 129.919 121.452 126.261 121.697C129.151 124.139 129.488 126.566 133.262 128.915C136.624 129.74 139.497 129.862 142.908 129.336C142.053 128.207 141.095 127.047 140.449 125.785C139.847 124.61 138.704 120.492 138 120.016L137.196 120.128Z" fill="#262526"/>
<path d="M132.305 153.374C131.197 149.393 130.276 137.585 131.2 133.815C131.708 133.317 131.79 133.259 132.482 133.098L132.599 133.431C132.78 138.42 131.815 145.664 135.754 149.474C137.602 151.261 141.656 152.129 144.172 152.084C144.402 152.08 144.632 152.047 144.851 151.978C145.364 151.558 145.552 151.247 146.229 151.237C146.49 151.76 146.555 152.202 146.623 152.772L146.831 153.175C148.523 153.481 150.355 153.365 152.072 153.377C145.324 153.655 139.061 154.224 132.305 153.374Z" fill="#8B8A8A"/>
<path d="M115.099 210.683C118.243 209.263 127.923 204.078 130.86 205.184C131.616 205.948 131.917 206.867 132.118 207.901C132.793 211.386 132.462 215.39 132.497 218.946C132.525 221.748 132.71 224.553 132.689 227.354C132.658 231.46 132.473 235.763 130.804 239.565C127.546 237.607 117.069 231.002 115.536 228.046C115.668 227.818 115.726 227.753 115.778 227.459C115.98 226.335 115.689 213.686 115.561 212.278C115.505 211.661 115.418 211.22 115.099 210.683Z" fill="#8B8A8A"/>
<path d="M127.004 158.071C128.467 172.456 126.735 186.975 128.673 201.36C124.943 203.254 118.843 206.282 115.666 208.742C115.614 207.461 115.638 206.167 115.626 204.884C119.536 200.615 114.705 171.671 117.65 166C119.411 162.61 123.788 159.979 127.004 158.071Z" fill="#C1BFC0"/>
<path d="M137.722 163.585C138.155 163.843 138.331 163.889 138.488 164.401C139.078 166.315 138.602 172.058 138.642 174.392C138.685 176.89 139.721 189.643 139.09 191.038C138.861 190.91 138.566 190.76 138.395 190.555C136.849 188.694 137.285 166.685 137.722 163.585Z" fill="#040303"/>
<path d="M73.7825 262.984C72.4654 263.431 70.5931 264.315 69.2286 264.321C68.652 264.323 68.3201 264.281 67.9383 263.866C69.1125 261.918 85.8141 256.398 88.6116 255.618C91.1917 254.898 97.0272 254.32 98.9128 252.724C99.3245 251.461 98.6703 250.268 98.0455 249.182C95.6676 245.054 91.9688 241.554 89.0516 237.798C86.7024 234.773 73.454 216.526 73.2634 214.202C73.641 213.972 73.8609 213.818 74.1057 213.447C73.9825 212.858 73.8351 212.283 73.6771 211.703L73.94 211.409C74.5372 211.619 88.5271 233.109 90.4866 235.828C95.3038 242.51 109.997 258.967 116.778 262.751C117.626 263.225 118.513 263.386 119.464 263.534L119.85 263.594C126.901 260.555 130.805 252.812 138.184 250.725C139.053 251.809 139.761 252.682 140.966 253.41C140.501 253.747 140.488 253.826 140.285 254.372C139.355 254.034 138.749 253.427 138.04 252.769C136.205 254.165 134.653 255.612 133.134 257.34C139.273 260.439 139.186 262.386 143.066 267.261C143.145 267.298 143.223 267.336 143.303 267.371C144.633 267.974 146.18 267.928 147.389 268.681L147.516 269.012C147.085 269.573 146.317 269.808 145.636 269.909C144.173 270.126 142.844 269.545 141.54 268.976C138.095 263.74 136.606 261.776 130.595 259.243C129.385 260.213 128.113 261.151 126.997 262.229C129.212 268.61 132.14 274.856 134.704 281.115C137.85 288.793 140.869 296.564 144.316 304.113C149.599 315.682 155.737 327.141 162.312 338.025C167.943 347.347 174.104 356.356 179.882 365.589C182.909 370.426 186.461 375.657 188.488 380.988C189.217 382.904 189.081 384.651 188.207 386.476C187.176 388.627 185.329 390.404 183.605 392.012C178.438 396.836 172.558 400.277 166.432 403.712C163.138 405.559 159.488 407.299 156.653 409.826C156.405 410.619 155.72 411.277 155.191 411.905C154.911 413.453 156.647 416.862 157.53 418.136C158.248 419.172 159.192 420.002 160.188 420.762C159.052 420.95 157.054 421.511 155.968 421.247C155.904 420.592 155.858 420.549 155.432 420.043C154.21 419.589 152.65 419.801 151.335 419.711C152.695 419.309 153.929 419.367 155.324 419.445C153.843 416.366 152.934 413.636 152.338 410.269C147.382 411.325 143.899 412.297 139.056 410.24C133.021 402.185 126.849 379.81 123.255 369.24C120.078 359.899 116.523 350.349 112.179 341.493C104.387 325.609 91.3526 313.506 81.7089 298.868C74.1029 287.324 70.921 276.894 73.7825 262.984Z" fill="#262526"/>
<defs>
<linearGradient id="paint0_linear_6412_1173" x1="289.976" y1="411.293" x2="292.369" y2="418.537" gradientUnits="userSpaceOnUse">
<stop stop-color="#292F27"/>
<stop offset="1" stop-color="#3D353C"/>
</linearGradient>
<linearGradient id="paint1_linear_6412_1173" x1="108.088" y1="175.661" x2="91.4195" y2="168.604" gradientUnits="userSpaceOnUse">
<stop stop-color="#212020"/>
<stop offset="1" stop-color="#3E3D3C"/>
</linearGradient>
</defs>
</svg>
