<svg width="129" height="40" viewBox="0 0 129 40" fill="none" xmlns="http://www.w3.org/2000/svg">
<path d="M36.48 27V12.8H39.52V26.18L37.84 24.44H46.06V27H36.48ZM47.0973 27V16.28H50.0973V27H47.0973ZM47.0373 14.96V12.56H50.1373V14.96H47.0373ZM54.7423 27L50.8223 16.28H53.9623L56.5023 23.98L59.0423 16.28H62.1623L58.2423 27H54.7423ZM62.9098 27V16.28H65.7498L65.8498 19.4L65.6298 19.34C65.8032 18.26 66.1098 17.48 66.5498 17C66.9898 16.52 67.5965 16.28 68.3698 16.28H69.3498V18.76H68.3698C67.8098 18.76 67.3498 18.8333 66.9898 18.98C66.6298 19.1267 66.3565 19.36 66.1698 19.68C65.9965 20 65.9098 20.4333 65.9098 20.98V27H62.9098ZM74.6028 27.24C73.5095 27.24 72.5495 27.0133 71.7228 26.56C70.9095 26.0933 70.2761 25.44 69.8228 24.6C69.3828 23.76 69.1628 22.7733 69.1628 21.64C69.1628 20.5067 69.3828 19.5267 69.8228 18.7C70.2761 17.86 70.9095 17.2067 71.7228 16.74C72.5495 16.2733 73.5095 16.04 74.6028 16.04C75.6961 16.04 76.6495 16.2733 77.4628 16.74C78.2761 17.2067 78.9095 17.86 79.3628 18.7C79.8161 19.5267 80.0428 20.5067 80.0428 21.64C80.0428 22.7733 79.8161 23.76 79.3628 24.6C78.9095 25.44 78.2761 26.0933 77.4628 26.56C76.6495 27.0133 75.6961 27.24 74.6028 27.24ZM74.6028 24.94C75.3495 24.94 75.9228 24.6533 76.3228 24.08C76.7361 23.4933 76.9428 22.68 76.9428 21.64C76.9428 20.6 76.7361 19.7933 76.3228 19.22C75.9228 18.6333 75.3495 18.34 74.6028 18.34C73.8561 18.34 73.2761 18.6333 72.8628 19.22C72.4495 19.7933 72.2428 20.6 72.2428 21.64C72.2428 22.68 72.4495 23.4933 72.8628 24.08C73.2761 24.6533 73.8561 24.94 74.6028 24.94ZM86.8842 27.32C85.6709 27.32 84.6242 27.1133 83.7442 26.7C82.8642 26.2867 82.1776 25.7067 81.6842 24.96C81.1909 24.2133 80.9109 23.3333 80.8442 22.32L83.9042 22.18C83.9709 22.74 84.1309 23.22 84.3842 23.62C84.6376 24.0067 84.9709 24.3 85.3842 24.5C85.8109 24.7 86.3242 24.8 86.9242 24.8C87.4309 24.8 87.8576 24.74 88.2042 24.62C88.5642 24.5 88.8376 24.32 89.0242 24.08C89.2109 23.8267 89.3042 23.52 89.3042 23.16C89.3042 22.8267 89.2242 22.54 89.0642 22.3C88.9176 22.0467 88.6176 21.82 88.1642 21.62C87.7109 21.4067 87.0376 21.2 86.1442 21C84.9309 20.72 83.9576 20.4067 83.2242 20.06C82.4909 19.7133 81.9509 19.28 81.6042 18.76C81.2709 18.2267 81.1042 17.56 81.1042 16.76C81.1042 15.9067 81.3176 15.16 81.7442 14.52C82.1709 13.88 82.7776 13.38 83.5642 13.02C84.3642 12.66 85.3176 12.48 86.4242 12.48C87.6109 12.48 88.6042 12.6867 89.4042 13.1C90.2176 13.5133 90.8509 14.08 91.3042 14.8C91.7709 15.52 92.0576 16.3467 92.1642 17.28L89.1242 17.44C89.0709 16.9467 88.9309 16.52 88.7042 16.16C88.4776 15.7867 88.1709 15.5 87.7842 15.3C87.3976 15.1 86.9309 15 86.3842 15C85.7042 15 85.1642 15.1533 84.7642 15.46C84.3776 15.7667 84.1842 16.1667 84.1842 16.66C84.1842 17.0067 84.2709 17.3 84.4442 17.54C84.6176 17.7667 84.9176 17.9667 85.3442 18.14C85.7709 18.3133 86.3709 18.48 87.1442 18.64C88.4509 18.9067 89.4842 19.2467 90.2442 19.66C91.0176 20.06 91.5642 20.54 91.8842 21.1C92.2176 21.66 92.3842 22.3 92.3842 23.02C92.3842 23.9 92.1576 24.6667 91.7042 25.32C91.2642 25.96 90.6309 26.4533 89.8042 26.8C88.9909 27.1467 88.0176 27.32 86.8842 27.32ZM96.9384 27.24C95.8184 27.24 94.9118 26.9867 94.2184 26.48C93.5251 25.96 93.1784 25.24 93.1784 24.32C93.1784 23.3733 93.4718 22.6467 94.0584 22.14C94.6584 21.62 95.5384 21.24 96.6984 21L100.158 20.32C100.158 19.6267 99.9984 19.1067 99.6784 18.76C99.3718 18.4 98.9184 18.22 98.3184 18.22C97.7584 18.22 97.3184 18.3533 96.9984 18.62C96.6784 18.8733 96.4651 19.2533 96.3584 19.76L93.3584 19.62C93.5584 18.4467 94.0851 17.56 94.9384 16.96C95.8051 16.3467 96.9318 16.04 98.3184 16.04C99.9184 16.04 101.125 16.42 101.938 17.18C102.752 17.94 103.158 19.0533 103.158 20.52V24.18C103.158 24.4867 103.205 24.6933 103.298 24.8C103.405 24.8933 103.558 24.94 103.758 24.94H104.058V27C103.965 27.0267 103.812 27.0533 103.598 27.08C103.398 27.1067 103.192 27.12 102.978 27.12C102.565 27.12 102.172 27.0467 101.798 26.9C101.425 26.7533 101.125 26.5067 100.898 26.16C100.685 25.8 100.578 25.2933 100.578 24.64L100.838 24.84C100.705 25.32 100.465 25.74 100.118 26.1C99.7851 26.46 99.3451 26.74 98.7984 26.94C98.2651 27.14 97.6451 27.24 96.9384 27.24ZM97.6584 25.18C98.1518 25.18 98.5851 25.0867 98.9584 24.9C99.3318 24.7 99.6251 24.4133 99.8384 24.04C100.052 23.6667 100.158 23.2267 100.158 22.72V22.2L97.7184 22.72C97.2251 22.8133 96.8584 22.9733 96.6184 23.2C96.3784 23.4133 96.2584 23.6933 96.2584 24.04C96.2584 24.4 96.3784 24.68 96.6184 24.88C96.8584 25.08 97.2051 25.18 97.6584 25.18ZM108.126 27.24C107.006 27.24 106.099 26.9867 105.406 26.48C104.713 25.96 104.366 25.24 104.366 24.32C104.366 23.3733 104.659 22.6467 105.246 22.14C105.846 21.62 106.726 21.24 107.886 21L111.346 20.32C111.346 19.6267 111.186 19.1067 110.866 18.76C110.559 18.4 110.106 18.22 109.506 18.22C108.946 18.22 108.506 18.3533 108.186 18.62C107.866 18.8733 107.653 19.2533 107.546 19.76L104.546 19.62C104.746 18.4467 105.273 17.56 106.126 16.96C106.993 16.3467 108.119 16.04 109.506 16.04C111.106 16.04 112.313 16.42 113.126 17.18C113.939 17.94 114.346 19.0533 114.346 20.52V24.18C114.346 24.4867 114.393 24.6933 114.486 24.8C114.593 24.8933 114.746 24.94 114.946 24.94H115.246V27C115.153 27.0267 114.999 27.0533 114.786 27.08C114.586 27.1067 114.379 27.12 114.166 27.12C113.753 27.12 113.359 27.0467 112.986 26.9C112.613 26.7533 112.313 26.5067 112.086 26.16C111.873 25.8 111.766 25.2933 111.766 24.64L112.026 24.84C111.893 25.32 111.653 25.74 111.306 26.1C110.973 26.46 110.533 26.74 109.986 26.94C109.453 27.14 108.833 27.24 108.126 27.24ZM108.846 25.18C109.339 25.18 109.773 25.0867 110.146 24.9C110.519 24.7 110.813 24.4133 111.026 24.04C111.239 23.6667 111.346 23.2267 111.346 22.72V22.2L108.906 22.72C108.413 22.8133 108.046 22.9733 107.806 23.2C107.566 23.4133 107.446 23.6933 107.446 24.04C107.446 24.4 107.566 24.68 107.806 24.88C108.046 25.08 108.393 25.18 108.846 25.18ZM121.873 27.32C120.659 27.32 119.613 27.1133 118.733 26.7C117.853 26.2867 117.166 25.7067 116.673 24.96C116.179 24.2133 115.899 23.3333 115.833 22.32L118.893 22.18C118.959 22.74 119.119 23.22 119.373 23.62C119.626 24.0067 119.959 24.3 120.373 24.5C120.799 24.7 121.313 24.8 121.913 24.8C122.419 24.8 122.846 24.74 123.193 24.62C123.553 24.5 123.826 24.32 124.013 24.08C124.199 23.8267 124.293 23.52 124.293 23.16C124.293 22.8267 124.213 22.54 124.053 22.3C123.906 22.0467 123.606 21.82 123.153 21.62C122.699 21.4067 122.026 21.2 121.133 21C119.919 20.72 118.946 20.4067 118.213 20.06C117.479 19.7133 116.939 19.28 116.593 18.76C116.259 18.2267 116.093 17.56 116.093 16.76C116.093 15.9067 116.306 15.16 116.733 14.52C117.159 13.88 117.766 13.38 118.553 13.02C119.353 12.66 120.306 12.48 121.413 12.48C122.599 12.48 123.593 12.6867 124.393 13.1C125.206 13.5133 125.839 14.08 126.293 14.8C126.759 15.52 127.046 16.3467 127.153 17.28L124.113 17.44C124.059 16.9467 123.919 16.52 123.693 16.16C123.466 15.7867 123.159 15.5 122.773 15.3C122.386 15.1 121.919 15 121.373 15C120.693 15 120.153 15.1533 119.753 15.46C119.366 15.7667 119.173 16.1667 119.173 16.66C119.173 17.0067 119.259 17.3 119.433 17.54C119.606 17.7667 119.906 17.9667 120.333 18.14C120.759 18.3133 121.359 18.48 122.133 18.64C123.439 18.9067 124.473 19.2467 125.233 19.66C126.006 20.06 126.553 20.54 126.873 21.1C127.206 21.66 127.373 22.3 127.373 23.02C127.373 23.9 127.146 24.6667 126.693 25.32C126.253 25.96 125.619 26.4533 124.793 26.8C123.979 27.1467 123.006 27.32 121.873 27.32Z" fill="black"/>
<g clip-path="url(#clip0_6412_1269)">
<path d="M23.25 16.625H14.6625L12 8.75L9.3375 16.625H0.75L7.6875 21.5L5.025 29.375L12 24.5L18.9375 29.375L16.275 21.5L23.25 16.625Z" fill="#6B7280"/>
<path d="M17.325 15.6125L18.825 11.3375L14.8875 14.0375L15.45 15.6125H17.325ZM10.4625 26.75L12 31.25L13.5375 26.75L12 25.7L10.4625 26.75ZM19.0125 20.8625L17.5875 21.8375L18.1875 23.6375H23.025L19.0125 20.8625ZM9.1125 14.0375L5.17501 11.3375L6.67501 15.6125H8.55L9.1125 14.0375ZM4.98751 20.8625L0.975006 23.6375H5.81251L6.41251 21.8375L4.98751 20.8625Z" fill="black"/>
</g>
<defs>
<clipPath id="clip0_6412_1269">
<rect width="24" height="24" fill="white" transform="translate(0 8)"/>
</clipPath>
</defs>
</svg>
